<?xml version="1.0" encoding="utf-8"?>
<!-- Generator: Adobe Illustrator 19.0.0, SVG Export Plug-In . SVG Version: 6.00 Build 0)  -->
<svg version="1.1" id="Layer_1" xmlns="http://www.w3.org/2000/svg" xmlns:xlink="http://www.w3.org/1999/xlink" x="0px" y="0px"
	 viewBox="-323 320.9 72.7 81.1" style="enable-background:new -323 320.9 72.7 81.1;" xml:space="preserve">
<style type="text/css">
	.st0{stroke:#000000;stroke-miterlimit:10;}
</style>
<path d="M-300.9,398.9L-300.9,398.9c-0.9-0.3-1.4-1.2-1.1-2.1l10.6-32.5c0.3-0.9,1.2-1.4,2.1-1.1l0,0c0.9,0.3,1.4,1.2,1.1,2.1
	l-10.6,32.5C-299,398.7-300,399.2-300.9,398.9z"/>
<path class="st0" d="M-292.8,363.4c-1.7-0.6-3.4-1.1-5.1-1.7c-2.6-0.9-2.5-0.5-2.4-3.6c0-0.7,0-1.3-0.1-2.1
	c-0.6,0.9-1.2,1.8-1.9,2.6c-0.8,1.2-1,1.2-2.3,0.8c-4.9-1.6-9.7-3.2-14.6-4.8c-1.1-0.4-1.3-0.6-1.2-1.8c0-2.3,0-4.6,0.1-6.9
	c0-0.6,0.2-1.2,0.5-1.7c6.1-10,14.3-16.8,25.5-18.8c6.8-1.2,13.3-0.1,19.6,2.4c5,2,9.4,4.8,13.1,8.9c5.4,6,8.1,13.4,8.7,21.7
	c0.2,2.5,0,5.1-0.1,7.7c0,0.4-0.2,0.9-0.5,1.3c-1.4,2-2.8,4-4.2,6c-0.5,0.7-1,0.9-1.8,0.6c-5-1.6-10-3.3-15-4.9
	c-0.9-0.3-1.1-0.6-1.1-1.7c0-1.2,0-2.3,0.1-3.5c-0.1,0-0.1,0-0.2-0.1c-0.7,1-1.4,1.9-2.1,2.9c-0.5,0.7-1,0.9-1.8,0.6
	c-2.1-0.7-4.2-1.4-6.4-2.1L-292.8,363.4z M-273.3,331.4c0.1,0.2,0.1,0.3,0.1,0.4c1.6,3.3,2.2,6.9,2.5,10.7c0.1,0.9-0.3,1.5-1,1.6
	c-0.8,0.1-1.2-0.3-1.3-1.3c-0.1-0.8-0.1-1.7-0.2-2.5c-0.4-3.1-1.1-6.1-2.8-8.7c-1.6-2.4-1.9-2.6-4.8-1.5c-2.2,0.9-4.1,2.4-5.9,4
	c-4.4,4.1-7.5,9.2-9.8,14.8c-0.3,0.7-0.6,1.5-0.8,2.2c7.5,2.4,14.9,4.9,22.3,7.3c0.3-1.3,0.7-2.6,1-3.9c0.2-1,0.8-1.4,1.5-1.3
	c0.7,0.2,1,0.8,0.8,1.8c-0.3,1.4-0.7,2.8-1,4.2c5.8,1.9,11.6,3.8,17.5,5.7c0.5-7.3-0.7-14.1-3.9-20.3
	C-262.4,338.5-267.2,334.3-273.3,331.4z M-282.9,328.3c-6.3-1.4-13.7-0.7-20.4,3c-5.7,3.2-10.3,7.7-13.9,13.4
	c5.9,1.9,11.7,3.8,17.6,5.7C-296.2,341.2-291.3,333.3-282.9,328.3z M-276.3,360.8c-7.2-2.4-14.3-4.7-21.4-7c0,1.6,0,3-0.1,4.5
	c0,0.6,0.2,0.8,0.7,1c2.7,0.9,5.4,1.7,8,2.6c3.1,1,6.1,2,9.2,3c0.2,0.1,0.7,0.1,0.8-0.1C-278.2,363.5-277.3,362.2-276.3,360.8z
	 M-300.9,352.8c-5.7-1.9-11.3-3.7-17-5.5c0,1.7-0.1,3.3-0.1,4.9c0,0.2,0.2,0.4,0.4,0.5c0.6,0.2,1.3,0.4,1.9,0.7
	c3.7,1.2,7.4,2.4,11,3.6c0.2,0.1,0.7,0.1,0.8-0.1C-302.8,355.5-301.9,354.1-300.9,352.8z M-273.2,361.8c0,1.6,0,3.1-0.1,4.6
	c0,0.6,0.2,0.8,0.7,1c3.8,1.2,7.6,2.5,11.4,3.7c0.6,0.2,1.4,0.7,1.9,0.5c0.6-0.2,0.9-1.1,1.4-1.7c0.6-0.8,1.1-1.6,1.7-2.5
	C-261.9,365.5-267.5,363.7-273.2,361.8z M-288.4,364.9c-0.8-0.2-1.5-0.5-2.2-0.7"/>
<path d="M-270.9,349.6c-0.3,0.8-0.7,1.1-1.3,1s-1-0.4-1-1s0-1.2,0.2-1.8c0.2-0.6,0.6-1,1.2-0.9c0.6,0,1,0.4,1,1.1
	C-270.8,348.6-270.8,349.2-270.9,349.6z"/>
<path d="M-278.2,329.7L-278.2,329.7c-0.7-0.3-1.1-1.1-1-1.8l1.3-3.9c0.3-0.7,1.1-1.1,1.8-1l0,0c0.7,0.3,1.1,1.1,1,1.8l-1.3,3.9
	C-276.5,329.6-277.4,330-278.2,329.7z"/>
</svg>
