<svg xmlns="http://www.w3.org/2000/svg" xmlns:xlink="http://www.w3.org/1999/xlink" width="125" height="89.903" viewBox="0 0 125 89.903">
  <defs>
    <clipPath id="clip-path">
      <path id="Clip_8" data-name="Clip 8" d="M0,0H9.6V33.686H0Z" transform="translate(0.23 0.097)" fill="none"/>
    </clipPath>
  </defs>
  <g id="Group_16" data-name="Group 16" transform="translate(0 -0.098)">
    <path id="Fill_1" data-name="Fill 1" d="M104.044,1.45H89A1.8,1.8,0,0,0,87.18,3.235,1.8,1.8,0,0,0,89,5.02h15.041a3.241,3.241,0,1,1,0,6.481H75.231a3.477,3.477,0,0,0-3.5-3.3h-16.7c.032-.366.049-.734.049-1.1V5.02H81.954a1.8,1.8,0,0,0,1.823-1.785,1.8,1.8,0,0,0-1.823-1.785H54.641A3.062,3.062,0,0,0,52.031,0H1.823A1.8,1.8,0,0,0,0,1.785,1.8,1.8,0,0,0,1.823,3.57H51.435V7.1a9.071,9.071,0,0,1-.327,2.427,9.5,9.5,0,0,1-9.2,6.9H33.258a1.785,1.785,0,1,0,0,3.57h8.651a13.184,13.184,0,0,0,12.277-8.226h17.4a3.48,3.48,0,0,0,3.5,3.3h28.949A6.893,6.893,0,0,0,111,8.259a6.891,6.891,0,0,0-6.956-6.809" transform="translate(14 39)"/>
    <path id="Fill_3" data-name="Fill 3" d="M40.154,16.43H13.338A9.5,9.5,0,0,1,3.691,7.1V3.57H8.326a1.816,1.816,0,0,0,1.846-1.785A1.816,1.816,0,0,0,8.326,0H3.088A3.042,3.042,0,0,0,0,2.987V7.1A13.139,13.139,0,0,0,13.338,20H40.154a1.786,1.786,0,1,0,0-3.57" transform="translate(0 39)"/>
    <path id="Fill_5" data-name="Fill 5" d="M4.211,0H1.789A1.9,1.9,0,0,0,0,2,1.9,1.9,0,0,0,1.789,4H4.211A1.9,1.9,0,0,0,6,2,1.9,1.9,0,0,0,4.211,0" transform="translate(112 45)"/>
    <g id="Group_9" data-name="Group 9" transform="translate(31)">
      <path id="Clip_8-2" data-name="Clip 8" d="M0,0H9.6V33.686H0Z" transform="translate(0.23 0.097)" fill="none"/>
      <g id="Group_9-2" data-name="Group 9" clip-path="url(#clip-path)">
        <path id="Fill_7" data-name="Fill 7" d="M7.316,22.366a7.811,7.811,0,0,0,0-11.046L4.939,8.943a4.061,4.061,0,0,1,0-5.743A1.875,1.875,0,1,0,2.288.549a7.811,7.811,0,0,0,0,11.046l2.377,2.377a4.061,4.061,0,0,1,0,5.743L2.288,22.091a7.811,7.811,0,0,0,0,11.046,1.875,1.875,0,0,0,2.651-2.652,4.06,4.06,0,0,1,0-5.742Z" transform="translate(0.23 0.097)"/>
      </g>
    </g>
    <path id="Fill_10" data-name="Fill 10" d="M6.856,11.638A8.078,8.078,0,0,0,9,6.095,8.077,8.077,0,0,0,6.856.551a1.676,1.676,0,0,0-2.485,0,1.978,1.978,0,0,0,0,2.661A4.2,4.2,0,0,1,5.486,6.095,4.2,4.2,0,0,1,4.371,8.976L2.144,11.362a8.239,8.239,0,0,0,0,11.087,1.676,1.676,0,0,0,2.485,0,1.978,1.978,0,0,0,0-2.661,4.283,4.283,0,0,1,0-5.763Z" transform="translate(42 11)"/>
    <path id="Fill_12" data-name="Fill 12" d="M6.856,11.638A8.078,8.078,0,0,0,9,6.095,8.077,8.077,0,0,0,6.856.551a1.676,1.676,0,0,0-2.485,0,1.978,1.978,0,0,0,0,2.661A4.2,4.2,0,0,1,5.486,6.095,4.2,4.2,0,0,1,4.371,8.976L2.144,11.362a8.239,8.239,0,0,0,0,11.087,1.676,1.676,0,0,0,2.485,0,1.978,1.978,0,0,0,0-2.661,4.283,4.283,0,0,1,0-5.763Z" transform="translate(21 11)"/>
    <path id="Fill_14" data-name="Fill 14" d="M63.153,26a1.813,1.813,0,0,1-1.846-1.773,1.813,1.813,0,0,0-1.847-1.772H5.54a1.812,1.812,0,0,0-1.846,1.772A1.813,1.813,0,0,1,1.847,26,1.813,1.813,0,0,1,0,24.227,5.438,5.438,0,0,1,5.54,18.909H9.123a9.491,9.491,0,0,1-1.159-4.846c0-3.032,1.778-4.866,3.5-6.64C13,5.836,14.592,4.194,15.219,1.4A1.8,1.8,0,0,1,16.569.055,1.915,1.915,0,0,1,17.024,0a1.879,1.879,0,0,1,1.4.617c.22.246,5.383,6.1,5.383,12.974a11.738,11.738,0,0,1-1.048,5.318h2.977a9.489,9.489,0,0,1-1.159-4.845c0-3.031,1.778-4.866,3.5-6.641,1.539-1.587,3.13-3.229,3.756-6.023A1.8,1.8,0,0,1,33.183.056,1.911,1.911,0,0,1,33.64,0a1.874,1.874,0,0,1,1.4.618,24.017,24.017,0,0,1,2.775,4,18.7,18.7,0,0,1,2.609,8.975,11.754,11.754,0,0,1-1.048,5.318h2.977a9.5,9.5,0,0,1-1.159-4.846c0-3.031,1.778-4.866,3.5-6.641,1.539-1.588,3.13-3.229,3.756-6.023A1.8,1.8,0,0,1,49.8.056,1.909,1.909,0,0,1,50.252,0a1.876,1.876,0,0,1,1.4.618c.22.245,5.384,6.078,5.384,12.973a11.738,11.738,0,0,1-1.048,5.318H59.46A5.438,5.438,0,0,1,65,24.227,1.813,1.813,0,0,1,63.153,26ZM50.756,5.594h0a19.625,19.625,0,0,1-3.362,4.244c-1.6,1.654-2.509,2.665-2.509,4.226,0,3.215,1.423,4.846,4.228,4.846,1.884,0,4.228,0,4.228-5.318a16.09,16.09,0,0,0-2.586-8Zm-16.613,0h0a19.654,19.654,0,0,1-3.363,4.244c-1.6,1.654-2.509,2.665-2.509,4.226,0,3.215,1.423,4.846,4.228,4.846,1.884,0,4.229,0,4.229-5.318a16.09,16.09,0,0,0-2.586-8Zm-16.614,0h0A19.613,19.613,0,0,1,14.176,9.83l-.009.009c-1.6,1.653-2.509,2.664-2.509,4.225,0,3.215,1.423,4.846,4.228,4.846,1.884,0,4.229,0,4.229-5.318a16.09,16.09,0,0,0-2.586-8Z" transform="translate(2 64)"/>
  </g>
</svg>
