<?xml version="1.0" encoding="utf-8"?>
<!-- Generator: Adobe Illustrator 19.0.0, SVG Export Plug-In . SVG Version: 6.00 Build 0)  -->
<svg version="1.1" id="Layer_1" xmlns="http://www.w3.org/2000/svg" xmlns:xlink="http://www.w3.org/1999/xlink" x="0px" y="0px"
	 viewBox="-103 105 173.6 171.8" style="enable-background:new -103 105 173.6 171.8;" xml:space="preserve">
<style type="text/css">
	.st0{fill:#EDEDED;}
</style>
<path class="st0" d="M-69.9,222.4c0.1-0.5,0.1-1.1,0.3-1.6c0.9-4.2,3.5-7.7,6.9-9.8c15.4-47.4,67.3-83.7,116.5-89.1
	c5.6-1.2,5.7-13.2-3.9-12c-58.1,6.3-116.7,52.1-129.3,111.8c2-0.8,4.2-1,6.5-0.5C-71.9,221.4-70.9,221.9-69.9,222.4L-69.9,222.4z"/>
<g>
	<path d="M64.9,216.6c0-6.1-3.3-11.2-7.9-12.9V124c2.8-1.9,4.3-5.6,3.7-9.5c-0.7-4.5-4.5-8.6-11.3-7.8
		c-28.4,3.1-57.3,15.4-81.2,34.8c-0.1,0.1-0.1,0.1-0.2,0.2l-0.1,0.1c-1.4,1.1-1.7,3.2-0.5,4.6c1.1,1.4,3.2,1.7,4.6,0.5
		c0.1-0.1,0.2-0.1,0.2-0.2l0.1-0.1c0,0,0,0,0,0c23-18.6,50.6-30.4,77.8-33.4c0,0,0,0,0,0c2.4-0.3,3.8,0.5,4.1,2.4
		c0.2,1.4-0.3,2.9-1.1,3.1c-24.9,2.7-50.5,13.2-72.3,29.4c-22.3,16.6-38.7,38.2-46.4,60.9c-3.1,2.2-5.5,5.4-6.8,9.1c0,0-0.1,0-0.1,0
		c-1-0.2-1.9-0.3-2.9-0.3c4.9-19,14.8-37.3,29-53.4c1.2-1.3,1.1-3.4-0.3-4.6c-1.3-1.2-3.4-1.1-4.6,0.3
		c-15.7,17.7-26.4,38.3-31.2,59.4c-3.6,1.9-6.4,5.4-7.3,9.7l-5.5,25c-0.8,3.8-0.1,7.7,2,11c2.1,3.3,5.3,5.5,9.1,6.4
		c1,0.2,2.1,0.3,3.1,0.3c6.7,0,12.7-4.6,14.2-11.4l4.2-19.4c1.2,0.6,2.5,1,3.9,1.3c1.3,0.3,2.7,0.4,4,0.4c2.7,0,5.3-0.6,7.7-1.7
		l5.2,7.5c-1,1.3-1.7,2.8-2.1,4.5c-0.6,2.9-0.1,6,1.5,8.5c1.6,2.5,4.1,4.3,7.1,4.9c0.8,0.2,1.6,0.3,2.4,0.3c5.3,0,9.9-3.7,11-8.9
		c0.6-2.9,0.1-6-1.5-8.5c-1.6-2.5-4.2-4.3-7.1-4.9c-0.8-0.2-1.6-0.3-2.4-0.3c-1.3,0-2.5,0.2-3.6,0.6l-5.1-7.4
		c2.5-2.5,4.4-5.7,5.2-9.3c1.1-4.9,0.2-9.8-2.5-14c-1.1-1.7-2.5-3.2-4-4.5L50.4,129v74.7c-4.6,1.7-7.9,6.8-7.9,12.9
		c0,6.1,3.3,11.2,7.9,12.9v14.6c0,1.6-1.3,3-3,3c-1.6,0-3-1.3-3-3v-2.3c0-1.8-1.5-3.3-3.3-3.3c-1.8,0-3.3,1.5-3.3,3.3v2.3
		c0,5.2,4.2,9.5,9.5,9.5c5.2,0,9.5-4.2,9.5-9.5v-14.6C61.5,227.8,64.9,222.6,64.9,216.6z M-31.8,250.7c1.2,0.3,2.3,1,3,2.1
		c0.7,1.1,0.9,2.4,0.6,3.6c-0.5,2.2-2.4,3.8-4.7,3.8c-0.3,0-0.7,0-1-0.1c-1.3-0.3-2.3-1-3-2.1c-0.7-1.1-0.9-2.4-0.6-3.6
		c0.5-2.2,2.4-3.8,4.7-3.8C-32.5,250.6-32.2,250.7-31.8,250.7z M-73.1,259c-0.9,4.3-5.2,7.1-9.6,6.1c-2.1-0.5-3.9-1.7-5-3.5
		c-1.2-1.8-1.6-4-1.1-6l5.5-25c0.6-2.7,2.5-4.8,4.8-5.7c0.1,0,0.1-0.1,0.2-0.1c1.4-0.5,3-0.7,4.5-0.3c0.2,0,0.3,0.1,0.5,0.1
		c0.1,3.4,1.1,6.7,3,9.6c0.6,1,1.3,1.9,2.1,2.7L-73.1,259z M-42.8,226.6c-0.4,2-1.3,3.7-2.6,5.2l-6.6-9.6c-1-1.5-3-1.9-4.5-0.8
		c-1.5,1-1.9,3-0.8,4.5l6.6,9.6c-1.2,0.4-2.5,0.7-3.9,0.7c-0.9,0-1.7-0.1-2.6-0.3c-3.2-0.7-5.9-2.6-7.6-5.3
		c-1.5-2.3-2.1-5.1-1.9-7.8c0,0,0,0,0-0.1c0-0.4,0.1-0.9,0.2-1.3c1.2-5.5,6.2-9.5,11.9-9.5c0.9,0,1.7,0.1,2.6,0.3
		c0.8,0.2,1.5,0.4,2.2,0.7c0,0,0,0,0.1,0c2.2,0.9,4,2.5,5.3,4.6C-42.7,220.2-42.1,223.5-42.8,226.6z M-50.7,205.8
		c-1.3-0.3-2.7-0.4-4-0.4c-0.9,0-1.8,0.1-2.7,0.2c15.4-38,56.3-69.9,100.3-78.7l-92.1,79.3C-49.7,206.1-50.1,205.9-50.7,205.8z
		 M53.7,223.5c-2.5,0-4.7-3.3-4.7-7c0-3.7,2.2-7,4.7-7c2.5,0,4.7,3.3,4.7,7C58.4,220.3,56.2,223.5,53.7,223.5z"/>
	<path d="M-39.6,156.3c0.8,0,1.7-0.3,2.3-1l0.1-0.1c1.3-1.3,1.3-3.3,0-4.6s-3.3-1.3-4.6,0l-0.1,0.1c-1.3,1.3-1.3,3.3,0,4.6
		C-41.3,156-40.5,156.3-39.6,156.3z"/>
</g>
</svg>
