<svg xmlns="http://www.w3.org/2000/svg" xmlns:xlink="http://www.w3.org/1999/xlink" width="86.888" height="88.098" viewBox="0 0 86.888 88.098">
  <defs>
    <clipPath id="clip-path">
      <path id="Clip_2" data-name="Clip 2" d="M0,0H86.888V88.1H0Z" transform="translate(0 0.114)" fill="none"/>
    </clipPath>
  </defs>
  <g id="Group_103" data-name="Group 103" transform="translate(0 -0.172)">
    <g id="Group_102" data-name="Group 102">
      <g id="Group_3" data-name="Group 3" transform="translate(0 0.059)">
        <path id="Clip_2-2" data-name="Clip 2" d="M0,0H86.888V88.1H0Z" transform="translate(0 0.114)" fill="none"/>
        <g id="Group_3-2" data-name="Group 3" clip-path="url(#clip-path)">
          <path id="Fill_1" data-name="Fill 1" d="M43.444,88.1a42.659,42.659,0,0,1-16.91-3.462A43.271,43.271,0,0,1,12.725,75.2,44.575,44.575,0,0,1,3.414,26.9a43.942,43.942,0,0,1,9.31-14,43.272,43.272,0,0,1,13.809-9.44,43.034,43.034,0,0,1,33.82,0A43.272,43.272,0,0,1,74.163,12.9a44.574,44.574,0,0,1,9.31,48.293,43.942,43.942,0,0,1-9.31,14,43.271,43.271,0,0,1-13.809,9.44A42.659,42.659,0,0,1,43.444,88.1ZM1.452,42.475v3.446h1.99A40.71,40.71,0,0,0,15.127,72.76a39.889,39.889,0,0,0,12.73,8.7,39.27,39.27,0,0,0,13.887,3.152v1.911h3.4V84.614A39.26,39.26,0,0,0,59.03,81.463a39.889,39.889,0,0,0,12.731-8.7A40.71,40.71,0,0,0,83.446,45.922h1.693V42.475H83.457a40.708,40.708,0,0,0-11.7-27.138c-.2-.207-.423-.422-.648-.641l1.129-1.31-2.56-2.266-1.122,1.3A39.822,39.822,0,0,0,59.03,6.635,39.28,39.28,0,0,0,45.143,3.484V1.872h-3.4V3.484A39.287,39.287,0,0,0,27.858,6.635a39.919,39.919,0,0,0-12.73,8.7,40.708,40.708,0,0,0-11.7,27.138Z" transform="translate(0 0.114)"/>
        </g>
      </g>
      <path id="Fill_4" data-name="Fill 4" d="M7.109,2.73A15.1,15.1,0,0,0,0,0V3.475A11.739,11.739,0,0,1,4.854,5.349Z" transform="translate(45.143 28.795)"/>
      <path id="Fill_6" data-name="Fill 6" d="M13.532,3.475V0A15.424,15.424,0,0,0,0,13.853H3.425A12.019,12.019,0,0,1,13.532,3.475" transform="translate(28.213 28.795)"/>
      <path id="Fill_8" data-name="Fill 8" d="M2.713,8.838H6.138A15.563,15.563,0,0,0,2.261,0L0,2.624A12.107,12.107,0,0,1,2.713,8.838" transform="translate(52.537 33.809)"/>
      <path id="Fill_10" data-name="Fill 10" d="M13.5,13.554V10.079A12.018,12.018,0,0,1,3.431,0H0A15.419,15.419,0,0,0,13.5,13.554" transform="translate(28.247 46.093)"/>
      <path id="Fill_12" data-name="Fill 12" d="M0,10.079v3.475A15.419,15.419,0,0,0,13.5,0H10.067A12.018,12.018,0,0,1,0,10.079" transform="translate(45.143 46.093)"/>
      <path id="Fill_14" data-name="Fill 14" d="M1.7.1A15.289,15.289,0,0,1,0,0V10.368c.563.037,1.13.058,1.7.058s1.136-.021,1.7-.058V0A15.289,15.289,0,0,1,1.7.1" transform="translate(41.745 59.648)"/>
      <path id="Fill_16" data-name="Fill 16" d="M3.4,10.426V.058C2.835.021,2.269,0,1.7,0S.563.022,0,.059V10.426a15.146,15.146,0,0,1,3.4,0" transform="translate(41.745 18.369)"/>
      <path id="Fill_18" data-name="Fill 18" d="M3.4,10.079V0H0V10.079a11.79,11.79,0,0,0,1.7.125,11.79,11.79,0,0,0,1.7-.125" transform="translate(41.745 46.093)"/>
      <path id="Fill_20" data-name="Fill 20" d="M1.7,11.305c.571,0,1.137.019,1.7.052V.038C2.834.015,2.268,0,1.7,0S.565.015,0,.038V11.356q.843-.05,1.7-.05" transform="translate(41.745 3.618)"/>
      <path id="Fill_22" data-name="Fill 22" d="M.927,10.5,3.4,7.634V.125A11.79,11.79,0,0,0,1.7,0,11.79,11.79,0,0,0,0,.125V10.5Z" transform="translate(41.745 32.145)"/>
      <path id="Fill_24" data-name="Fill 24" d="M1.7.052C1.129.052.562.033,0,0V11.319c.565.024,1.131.038,1.7.038s1.135-.015,1.7-.038V0C2.836.033,2.27.052,1.7.052" transform="translate(41.745 73.468)"/>
      <path id="Fill_26" data-name="Fill 26" d="M3.4,1.612V0H0V1.612c.565-.024,1.131-.038,1.7-.038s1.135.015,1.7.038" transform="translate(41.745 2.044)"/>
      <path id="Fill_28" data-name="Fill 28" d="M0,0V1.911H3.4V0C2.834.024,2.268.038,1.7.038S.565.024,0,0" transform="translate(41.745 84.786)"/>
      <path id="Fill_30" data-name="Fill 30" d="M1.7,3.446a11.79,11.79,0,0,1,1.7.125V.1A15.146,15.146,0,0,0,0,.1V3.571a11.79,11.79,0,0,1,1.7-.125" transform="translate(41.745 28.699)"/>
      <path id="Fill_32" data-name="Fill 32" d="M1.7.125A11.79,11.79,0,0,1,0,0V3.475a15.289,15.289,0,0,0,1.7.1,15.289,15.289,0,0,0,1.7-.1V0A11.79,11.79,0,0,1,1.7.125" transform="translate(41.745 56.172)"/>
      <path id="Fill_34" data-name="Fill 34" d="M0,2.369V3.446H10.067a12.276,12.276,0,0,0,.144-1.872A12.3,12.3,0,0,0,10.107,0H2.041Z" transform="translate(45.143 42.647)"/>
      <path id="Fill_36" data-name="Fill 36" d="M10.211,0H.1A12.266,12.266,0,0,0,0,1.574,12.294,12.294,0,0,0,.144,3.446H10.211Z" transform="translate(31.534 42.648)"/>
      <path id="Fill_38" data-name="Fill 38" d="M11.178,0H.019Q.059.782.06,1.574C.06,2.2.039,2.827,0,3.446H11.167c.028-.622.043-1.246.043-1.872,0-.526-.013-1.051-.032-1.574" transform="translate(72.279 42.648)"/>
      <path id="Fill_40" data-name="Fill 40" d="M.066,3.446H10.3a15.9,15.9,0,0,1-.111-1.872q0-.8.078-1.574H.047Q0,.783,0,1.574q0,.942.066,1.872" transform="translate(17.947 42.648)"/>
      <path id="Fill_42" data-name="Fill 42" d="M11.15,1.574c0-.528.017-1.052.045-1.574H.032C.013.523,0,1.047,0,1.574,0,2.2.016,2.824.043,3.446H11.21c-.038-.619-.06-1.243-.06-1.872" transform="translate(3.398 42.648)"/>
      <path id="Fill_44" data-name="Fill 44" d="M.111,1.574A15.9,15.9,0,0,1,0,3.446H10.234q.065-.93.066-1.872c0-.527-.017-1.052-.048-1.574H.033Q.11.776.111,1.574" transform="translate(58.642 42.648)"/>
      <path id="Fill_46" data-name="Fill 46" d="M1.692,0H.011C.03.523.043,1.047.043,1.574.043,2.2.028,2.824,0,3.446H1.692Z" transform="translate(83.447 42.648)"/>
      <path id="Fill_48" data-name="Fill 48" d="M1.979,0H0V3.446H1.99c-.028-.622-.043-1.246-.043-1.872,0-.526.013-1.051.032-1.574" transform="translate(1.452 42.648)"/>
      <path id="Fill_50" data-name="Fill 50" d="M.144,1.574A12.272,12.272,0,0,1,0,3.446H3.431a15.9,15.9,0,0,0,.111-1.872q0-.8-.078-1.574H.039a12.266,12.266,0,0,1,.1,1.574" transform="translate(55.211 42.648)"/>
      <path id="Fill_52" data-name="Fill 52" d="M.111,3.446H3.542A12.275,12.275,0,0,1,3.4,1.574,12.3,12.3,0,0,1,3.5,0H.078Q0,.776,0,1.574A15.9,15.9,0,0,0,.111,3.446" transform="translate(28.135 42.648)"/>
      <path id="Fill_54" data-name="Fill 54" d="M3.4,2.369l-.419.487L.419.59.927,0H0V3.446H3.4Z" transform="translate(41.745 42.647)"/>
      <path id="Fill_56" data-name="Fill 56" d="M6.726,0,0,7.808a15.459,15.459,0,0,1,2.545,2.284l6.73-7.812L9.22,2.223A26.012,26.012,0,0,0,6.726,0" transform="translate(52.253 23.718)"/>
      <path id="Fill_58" data-name="Fill 58" d="M2.551,10.8,9.9,2.274Q8.663,1.077,7.343,0L0,8.525A29.165,29.165,0,0,1,2.551,10.8" transform="translate(61.216 12.595)"/>
      <path id="Fill_60" data-name="Fill 60" d="M2.041,8.5,7.393,2.29A12.051,12.051,0,0,0,4.853,0L0,5.635V8.5Z" transform="translate(45.143 34.144)"/>
      <path id="Fill_62" data-name="Fill 62" d="M3.681,2.267,1.122,0,0,1.3Q1.318,2.381,2.553,3.576Z" transform="translate(68.56 11.293)"/>
      <path id="Fill_64" data-name="Fill 64" d="M2.54,4.908,4.8,2.284A15.469,15.469,0,0,0,2.256,0L0,2.619a12.06,12.06,0,0,1,2.54,2.29" transform="translate(49.997 31.525)"/>
      <path id="Fill_66" data-name="Fill 66" d="M2.471,0,0,2.869H2.471Z" transform="translate(42.672 39.779)"/>
      <path id="Fill_68" data-name="Fill 68" d="M0,0V2.369L2.041,0Z" transform="translate(45.143 42.648)"/>
      <path id="Fill_70" data-name="Fill 70" d="M2.56,2.856l.419-.487V0H.508L0,.59Z" transform="translate(42.164 42.648)"/>
      <path id="Fill_72" data-name="Fill 72" d="M6.431,1.884,3.582,0A29.436,29.436,0,0,0,0,12.644H3.4a25.921,25.921,0,0,1,3.03-10.76" transform="translate(14.593 30.004)"/>
      <path id="Fill_74" data-name="Fill 74" d="M0,4.963,2.112,7.671A25.029,25.029,0,0,1,14.47,3.455V0A28.478,28.478,0,0,0,0,4.963" transform="translate(27.275 14.973)"/>
      <path id="Fill_76" data-name="Fill 76" d="M2.24,0,0,2.6A25.823,25.823,0,0,1,7.366,19.251h3.4A29.386,29.386,0,0,0,2.24,0" transform="translate(61.527 23.396)"/>
      <path id="Fill_78" data-name="Fill 78" d="M1.7.058C1.13.058.563.037,0,0V3.452c.562.033,1.129.052,1.7.052s1.137-.019,1.7-.052V0c-.563.037-1.13.058-1.7.058" transform="translate(41.745 70.016)"/>
      <path id="Fill_80" data-name="Fill 80" d="M3.4,3.5V.052C2.836.019,2.27,0,1.7,0S.562.017,0,.05V3.5c.563-.037,1.129-.059,1.7-.059s1.136.021,1.7.058" transform="translate(41.745 14.923)"/>
      <path id="Fill_82" data-name="Fill 82" d="M3.4,1.574Q3.4.783,3.446,0H.045C.017.521,0,1.045,0,1.574,0,2.2.022,2.827.06,3.446h3.4Q3.4,2.516,3.4,1.574" transform="translate(14.548 42.648)"/>
      <path id="Fill_84" data-name="Fill 84" d="M.066,1.574q0,.942-.066,1.872H3.4c.038-.619.06-1.243.06-1.872Q3.465.782,3.423,0H.018C.049.522.066,1.046.066,1.574" transform="translate(68.875 42.648)"/>
      <path id="Fill_86" data-name="Fill 86" d="M2.495,4.821l.054.056,2.24-2.6A29.166,29.166,0,0,0,2.238,0L0,2.6A26.032,26.032,0,0,1,2.495,4.821" transform="translate(58.978 21.12)"/>
      <path id="Fill_88" data-name="Fill 88" d="M13.7,3.041a6.1,6.1,0,0,0-1.2-1.375A6.447,6.447,0,0,0,6.835.133a6.483,6.483,0,0,0-3.6,2.049c-.023.025-.05.047-.086.079l-.034-.089A2.087,2.087,0,0,0,1.49.742,10.319,10.319,0,0,0,.1.676.4.4,0,0,0,.013.692,2.474,2.474,0,0,0,1.022,3.168,2.447,2.447,0,0,0,.03,5.657c.358,0,.718.018,1.075,0A2.164,2.164,0,0,0,2.954,4.518c.08-.138.137-.29.217-.462.041.052.07.1.107.134A6.525,6.525,0,0,0,9.44,6.2a6.468,6.468,0,0,0,3.286-1.716,11.174,11.174,0,0,0,.979-1.2.182.182,0,0,0,0-.245" transform="translate(16.22 22.833)"/>
      <path id="Fill_90" data-name="Fill 90" d="M13.7,3.041a6.1,6.1,0,0,0-1.2-1.375A6.447,6.447,0,0,0,6.835.133a6.483,6.483,0,0,0-3.6,2.049c-.023.025-.05.047-.086.079l-.034-.089A2.087,2.087,0,0,0,1.49.742,10.319,10.319,0,0,0,.1.676.4.4,0,0,0,.013.692,2.474,2.474,0,0,0,1.022,3.168,2.447,2.447,0,0,0,.03,5.657c.358,0,.718.018,1.075,0A2.164,2.164,0,0,0,2.954,4.518c.08-.138.137-.29.217-.462.041.052.07.1.107.134A6.525,6.525,0,0,0,9.44,6.2a6.468,6.468,0,0,0,3.286-1.716,11.174,11.174,0,0,0,.979-1.2.182.182,0,0,0,0-.245" transform="translate(58.978 57.958)"/>
      <path id="Fill_92" data-name="Fill 92" d="M13.7,3.041a6.1,6.1,0,0,0-1.2-1.375A6.447,6.447,0,0,0,6.835.133a6.482,6.482,0,0,0-3.6,2.049c-.023.025-.05.046-.086.079l-.034-.089A2.087,2.087,0,0,0,1.49.742,10.319,10.319,0,0,0,.1.676.4.4,0,0,0,.013.692,2.474,2.474,0,0,0,1.022,3.168,2.447,2.447,0,0,0,.03,5.657c.358,0,.718.018,1.075,0A2.164,2.164,0,0,0,2.954,4.518c.08-.138.137-.29.217-.462.041.052.07.1.107.134A6.525,6.525,0,0,0,9.44,6.2a6.468,6.468,0,0,0,3.286-1.716,11.174,11.174,0,0,0,.979-1.2.182.182,0,0,0,0-.245" transform="translate(21.37 65.449)"/>
      <path id="Fill_94" data-name="Fill 94" d="M5.406.643A25.242,25.242,0,0,1,1.181,0L0,3.251a28.5,28.5,0,0,0,5.406.844Z" transform="translate(36.339 69.373)"/>
      <path id="Fill_96" data-name="Fill 96" d="M10.806,16.408A25.819,25.819,0,0,1,3.4,0H0A29.383,29.383,0,0,0,8.416,18.854l2.469-2.368-.079-.079" transform="translate(14.609 46.093)"/>
      <path id="Fill_98" data-name="Fill 98" d="M6.07,0h-3.4A25.933,25.933,0,0,1,0,9.8l3.512.529A29.461,29.461,0,0,0,6.07,0" transform="translate(66.209 46.093)"/>
      <path id="Fill_100" data-name="Fill 100" d="M0,5V8.457A28.557,28.557,0,0,0,17.114,1.444L13.462,0A25.048,25.048,0,0,1,0,5" transform="translate(45.143 65.011)"/>
    </g>
  </g>
</svg>
