<?xml version="1.0" encoding="UTF-8"?>
<svg width="116px" height="97px" viewBox="0 0 116 97" version="1.1" xmlns="http://www.w3.org/2000/svg" xmlns:xlink="http://www.w3.org/1999/xlink">
    <!-- Generator: Sketch 61 (89581) - https://sketch.com -->
    <title>Group</title>
    <desc>Created with Sketch.</desc>
    <defs>
        <polygon id="path-1" points="0.158280495 0.184957259 8.81236099 0.184957259 8.81236099 12.4971121 0.158280495 12.4971121"></polygon>
        <polygon id="path-3" points="0 66.432017 106.854904 66.432017 106.854904 0.204886864 0 0.204886864"></polygon>
    </defs>
    <g id="Page-1" stroke="none" stroke-width="1" fill="none" fill-rule="evenodd">
        <g id="Mobile" transform="translate(-103.000000, -28.000000)">
            <g id="Group" transform="translate(102.000000, 28.000000)">
                <g id="Group-20" transform="translate(5.000000, 0.000000)">
                    <polygon id="Fill-1" fill="#FEFEFE" points="0 55.5 0 67.5 8 67.5 8 65.2333297 2.44581149 65.2333297 2.44581149 62.499973 6.94702944 62.499973 6.94702944 60.2333027 2.44581149 60.2333027 2.44581149 57.7666703 8 57.7666703 8 55.5"></polygon>
                    <path d="M13.0378462,55.5 L9,67.5 L11.5932923,67.5 L12.4289538,64.8000243 L16.4844,64.8000243 L17.3021231,67.5 L20,67.5 L15.9621538,55.5 L13.0378462,55.5 Z M14.4827385,58.1335377 L15.8054462,62.533354 L13.1248308,62.533354 L14.4827385,58.1335377 Z" id="Fill-2" fill="#FEFEFE"></path>
                    <g id="Group-19" transform="translate(0.000000, 0.500000)">
                        <g id="Group-5" transform="translate(20.207430, 53.934905)">
                            <mask id="mask-2" fill="white">
                                <use xlink:href="#path-1"></use>
                            </mask>
                            <g id="Clip-4"></g>
                            <path d="M6.35931146,5.46169841 L3.19072012,4.78521 C2.97473251,4.74015462 2.82433622,4.67503809 2.7392,4.59084702 C2.65406378,4.5059982 2.6116613,4.37905385 2.6116613,4.21001397 L2.6116613,3.05995079 C2.6116613,2.67681564 2.80446006,2.48508363 3.19072012,2.48508363 L5.64376966,2.48508363 C6.02969845,2.48508363 6.22282848,2.67681564 6.22282848,3.05995079 L6.22282848,4.00710033 L8.6079678,4.00710033 L8.6079678,2.58637601 C8.6079678,1.87634272 8.38369845,1.29851572 7.93515975,0.852895014 C7.48628978,0.407603177 6.9045808,0.184957259 6.18903901,0.184957259 L2.57720929,0.184957259 C1.86199876,0.184957259 1.27995851,0.407603177 0.831419814,0.852895014 C0.382549845,1.29851572 0.158280495,1.87634272 0.158280495,2.58637601 L0.158280495,4.64971499 C0.158280495,5.2699664 0.37989969,5.78892542 0.822806811,6.20593432 C1.26571393,6.62294322 1.86199876,6.91596761 2.6116613,7.08533637 L5.77992136,7.76182478 C5.99557771,7.80688016 6.14630526,7.87166782 6.23144149,7.95618776 C6.31690898,8.0407077 6.35931146,8.16765205 6.35931146,8.33669193 L6.35931146,9.62192125 C6.35931146,10.0053853 6.16618142,10.1971173 5.77992136,10.1971173 L3.12247864,10.1971173 C2.73621858,10.1971173 2.54308854,10.0053853 2.54308854,9.62192125 L2.54308854,8.53960557 L0.158280495,8.53960557 L0.158280495,10.095496 C0.158280495,10.8058582 0.382549845,11.3836852 0.831419814,11.828977 C1.27995851,12.2745977 1.86199876,12.4972437 2.57720929,12.4972437 L6.3934322,12.4972437 C7.10897399,12.4972437 7.69068297,12.2745977 8.13955294,11.828977 C8.58809164,11.3836852 8.81236099,10.8058582 8.81236099,10.095496 L8.81236099,7.89699091 C8.81236099,7.27706838 8.59107307,6.75843822 8.14783467,6.34110045 C7.70492755,5.92409156 7.10897399,5.63073829 6.35931146,5.46169841" id="Fill-3" fill="#FEFEFE" mask="url(#mask-2)"></path>
                        </g>
                        <polygon id="Fill-6" fill="#FEFEFE" points="34.4508861 59.3966033 32.1339882 54.1876096 29.4424248 54.1876096 33.2241957 62.1532031 33.2241957 66.364401 35.6775765 66.364401 35.6775765 62.1532031 39.4593474 54.1876096 36.7677839 54.1876096"></polygon>
                        <polygon id="Fill-8" fill="#FEFEFE" points="40.5017195 66.364401 42.954769 66.364401 42.954769 61.3921947 47.4693077 61.3921947 47.4693077 59.0920684 42.954769 59.0920684 42.954769 56.487736 48.5253944 56.487736 48.5253944 54.1876096 40.5017195 54.1876096"></polygon>
                        <mask id="mask-4" fill="white">
                            <use xlink:href="#path-3"></use>
                        </mask>
                        <g id="Clip-11"></g>
                        <polygon id="Fill-10" fill="#FEFEFE" mask="url(#mask-4)" points="49.750031 66.3642695 52.2030805 66.3642695 52.2030805 54.1874781 49.750031 54.1874781"></polygon>
                        <path d="M59.8588146,59.3966033 L56.6902232,58.7201149 C56.4742356,58.6750595 56.3238393,58.6099429 56.2387031,58.5257519 C56.1535669,58.4409031 56.1111644,58.3139587 56.1111644,58.1449188 L56.1111644,56.9948556 C56.1111644,56.6117205 56.3039632,56.4199885 56.6902232,56.4199885 L59.1432728,56.4199885 C59.5292015,56.4199885 59.7226628,56.6117205 59.7226628,56.9948556 L59.7226628,57.9420052 L62.1074709,57.9420052 L62.1074709,56.5212809 C62.1074709,55.8112476 61.8828703,55.2334206 61.4346628,54.7877999 C60.9857929,54.342508 60.4040839,54.1198621 59.6882108,54.1198621 L56.0770437,54.1198621 C55.3615019,54.1198621 54.7791303,54.342508 54.3309229,54.7877999 C53.8820529,55.2334206 53.6577836,55.8112476 53.6577836,56.5212809 L53.6577836,58.5846199 C53.6577836,59.2048713 53.8790715,59.7238303 54.3223099,60.1408392 C54.765217,60.5578481 55.3615019,60.8508725 56.1111644,61.0202412 L59.2797557,61.6967296 C59.4950808,61.741785 59.6458084,61.8065727 59.7309446,61.8910926 C59.8160808,61.9756126 59.8588146,62.1025569 59.8588146,62.2715968 L59.8588146,63.5568261 C59.8588146,63.9402901 59.6656845,64.1320221 59.2797557,64.1320221 L56.6219817,64.1320221 C56.2357217,64.1320221 56.0425916,63.9402901 56.0425916,63.5568261 L56.0425916,62.4745104 L53.6577836,62.4745104 L53.6577836,64.0304009 C53.6577836,64.740763 53.8820529,65.31859 54.3309229,65.7638819 C54.7791303,66.2095026 55.3615019,66.4321485 56.0770437,66.4321485 L59.8929353,66.4321485 C60.6084771,66.4321485 61.1905173,66.2095026 61.639056,65.7638819 C62.0875947,65.31859 62.3118641,64.740763 62.3118641,64.0304009 L62.3118641,61.8318958 C62.3118641,61.2119732 62.0902449,60.6933431 61.6473378,60.2760053 C61.2044307,59.8589964 60.6084771,59.5656432 59.8588146,59.3966033" id="Fill-12" fill="#FEFEFE" mask="url(#mask-4)"></path>
                        <polygon id="Fill-13" fill="#FEFEFE" mask="url(#mask-4)" points="70.4464811 58.9906444 66.2214718 58.9906444 66.2214718 54.1874781 63.7684223 54.1874781 63.7684223 66.3642695 66.2214718 66.3642695 66.2214718 61.2907708 70.4464811 61.2907708 70.4464811 66.3642695 72.8995307 66.3642695 72.8995307 54.1874781 70.4464811 54.1874781"></polygon>
                        <path d="M94.2522916,54.119895 L90.3681585,54.119895 C89.6526167,54.119895 89.0702452,54.3425409 88.6220378,54.7878328 C88.1731678,55.2334535 87.9492297,55.8112805 87.9492297,56.5213138 L87.9492297,64.0304338 C87.9492297,64.7407959 88.1731678,65.3186229 88.6220378,65.7639148 C89.0702452,66.2095355 89.6526167,66.4321814 90.3681585,66.4321814 L94.2522916,66.4321814 C94.9678334,66.4321814 95.5495424,66.2095355 95.9984124,65.7639148 C96.4469511,65.3186229 96.6715517,64.7407959 96.6715517,64.0304338 L96.6715517,62.068716 L94.2181709,62.068716 L94.2181709,63.556859 C94.2181709,63.940323 94.0247096,64.132055 93.6387808,64.132055 L90.9813381,64.132055 C90.595078,64.132055 90.4022793,63.940323 90.4022793,63.556859 L90.4022793,56.9948885 C90.4022793,56.6117534 90.595078,56.4200214 90.9813381,56.4200214 L93.6387808,56.4200214 C94.0247096,56.4200214 94.2181709,56.6117534 94.2181709,56.9948885 L94.2181709,58.4833604 L96.6715517,58.4833604 L96.6715517,56.5213138 C96.6715517,55.8112805 96.4469511,55.2334535 95.9984124,54.7878328 C95.5495424,54.3425409 94.9678334,54.119895 94.2522916,54.119895" id="Fill-14" fill="#FEFEFE" mask="url(#mask-4)"></path>
                        <path d="M104.401921,63.5569577 C104.401921,63.9404217 104.208791,64.1321537 103.822862,64.1321537 L100.9438,64.1321537 C100.55754,64.1321537 100.36441,63.9404217 100.36441,63.5569577 L100.36441,56.9949872 C100.36441,56.611852 100.55754,56.4197912 100.9438,56.4197912 L103.822862,56.4197912 C104.208791,56.4197912 104.401921,56.611852 104.401921,56.9949872 L104.401921,63.5569577 Z M106.182162,54.7879314 C105.733624,54.3426396 105.151583,54.1199937 104.436041,54.1199937 L100.33062,54.1199937 C99.6150786,54.1199937 99.0327071,54.3426396 98.5841684,54.7879314 C98.1356297,55.2335521 97.9113604,55.8110503 97.9113604,56.5214124 L97.9113604,64.0305324 C97.9113604,64.7408946 98.1356297,65.3187216 98.5841684,65.7640134 C99.0327071,66.2096341 99.6150786,66.4319512 100.33062,66.4319512 L104.436041,66.4319512 C105.151583,66.4319512 105.733624,66.2096341 106.182162,65.7640134 C106.631032,65.3187216 106.85497,64.7408946 106.85497,64.0305324 L106.85497,56.5214124 C106.85497,55.8110503 106.631032,55.2335521 106.182162,54.7879314 L106.182162,54.7879314 Z" id="Fill-15" fill="#FEFEFE" mask="url(#mask-4)"></path>
                        <path d="M83.5787932,60.5650175 C83.3406105,60.5650175 83.1471488,60.3729566 83.1471488,60.1364981 C83.146818,59.9000396 83.3406105,59.7079783 83.5784619,59.7079783 C83.8166446,59.7076498 84.0104372,59.9000396 84.0104372,60.1361692 C84.0104372,60.3726277 83.8169759,60.5650175 83.5787932,60.5650175 M82.0022824,60.8915867 C82.2550409,61.4092303 82.7549263,61.7801972 83.3512111,61.8578108 C83.4267406,61.867677 83.5009449,61.880503 83.5791245,61.880503 C84.547756,61.8801741 85.3358458,61.0977891 85.3355147,60.1361692 C85.3351833,59.1742204 84.5470935,58.3921643 83.5784619,58.3924931 C82.8682204,58.3924931 82.2586848,58.8150929 81.9820749,59.418243 M81.9820749,59.418243 L78.2897467,59.4192296 C78.0267189,59.4192296 77.895205,59.2886677 77.895205,59.0278727 L77.895205,57.9919279 C77.8948737,57.7311329 78.0263876,57.6005709 78.2894155,57.6005709 L79.5412824,57.6002421 C79.8039789,57.6002421 79.9354929,57.730804 79.9358241,57.991599 L79.9358241,58.4980609 L81.6054217,58.497732 L81.6050904,57.6916683 C81.6050904,57.2085563 81.4523752,56.8152261 81.1469449,56.5120067 C80.8415146,56.2091162 80.4456477,56.0578353 79.9586817,56.0578353 L77.8713536,56.0581642 C77.3843876,56.0584931 76.9881895,56.2101028 76.6830904,56.5129933 C76.3779913,56.8162127 76.2252762,57.2095429 76.2252762,57.6929838 L76.2256074,58.9130966 C76.2256074,59.4504724 76.4694217,59.8645215 76.9563876,60.1562304 C76.4074743,60.4249183 76.1331833,60.8392962 76.1331833,61.3993641 L76.1335146,62.8036449 C76.1338458,63.2870858 76.286561,63.680416 76.5919913,63.9833065 C76.8974217,64.2865259 77.2932885,64.4381356 77.7805858,64.4378073 L80.3545486,64.4374779 C80.8411833,64.437149 81.2377127,64.2858682 81.5428118,63.9823199 C81.8479108,63.6791005 82.000626,63.2857703 82.0002947,62.8023294 L82.0002947,61.8689925 L80.3306972,61.8693213 L80.3306972,62.5033853 C80.3306972,62.7645092 80.1995146,62.8950711 79.936818,62.8950711 L78.1976539,62.8954 C77.934626,62.8954 77.8031121,62.7651669 77.8031121,62.5040431 L77.8027808,61.2839303 C77.8027808,61.0231353 77.9651028,60.8925734 78.290078,60.8925734 L79.9560316,60.8922445 L79.9560316,60.890929 L82.0016198,60.8906001" id="Fill-16" fill="#FEFEFE" mask="url(#mask-4)"></path>
                        <path d="M68.9998941,5.56575331 C68.3698198,5.57200187 67.8523771,5.06817093 67.8464142,4.44298645 C67.8401201,3.81780197 68.3472935,3.30410489 68.9773678,3.29785634 C69.6071108,3.29160778 70.1245536,3.79510985 70.1308477,4.4206232 C70.1368105,5.04580767 69.6296372,5.55950475 68.9998941,5.56575331 L68.9998941,5.56575331 Z M69.392117,12.3253755 C68.6739251,13.4517599 67.1888446,13.8434457 65.9976,13.1912938 C64.7596464,12.5134899 64.3094514,10.9681233 64.9921975,9.73945988 C64.9921975,9.73945988 65.3552687,9.16919692 66.5475071,9.89501604 C67.7400768,10.6205063 69.5829282,11.6488871 69.4746031,12.1931692 C69.4640025,12.2464463 69.4325319,12.2885419 69.392117,12.3253755 L69.392117,12.3253755 Z M52.686535,11.2164212 L54.0450706,18.9754835 L50.5269901,11.2236564 L54.1182811,2.66149023 L52.686535,11.2164212 Z M45.0593895,25.5141041 L44.9918105,25.4210335 L44.9785598,25.3476952 C44.6880365,24.7310613 43.6372502,23.3113236 43.4553833,21.656114 C43.4553833,21.656114 41.5184514,20.3922613 40.714792,19.3599341 C43.6544762,17.3452681 47.4024576,16.5454529 51.102405,17.4301169 C50.6618167,17.5409465 46.3679034,20.4761235 45.0593895,25.5141041 L45.0593895,25.5141041 Z M69.8482749,7.12460361 C71.0087115,6.75889864 71.8468229,5.67395199 71.8342347,4.40385076 C71.818665,2.84598707 70.529696,1.59134279 68.9604731,1.60679974 C67.5671542,1.62028347 66.4166557,2.63189181 66.1867548,3.94869278 C62.6898755,1.55023387 58.4403523,0.161081198 53.8668477,0.205807704 C42.0809467,0.321570427 32.6212192,9.90060685 32.737826,21.6008636 C32.8544328,33.3011204 42.5029839,42.6927001 54.2888848,42.5769374 C54.2912037,42.5769374 54.2935226,42.5766085 54.2958415,42.5766085 C39.1863152,27.8701386 54.0854854,21.4393878 54.0854854,21.4393878 L71.703052,21.2667303 C71.703052,21.2667303 72.7614576,20.9727193 72.5948291,20.0374091 C72.4282006,19.1024278 69.2685536,17.6501318 69.2685536,17.6501318 L73.6045381,14.8363084 C73.6045381,14.8363084 74.1607393,14.6136625 74.1156867,14.0960189 C73.1540118,11.4933309 71.6917889,9.1326922 69.8482749,7.12460361 L69.8482749,7.12460361 Z" id="Fill-17" fill="#FEFEFE" mask="url(#mask-4)"></path>
                        <path d="M64.7012105,33.8308006 C64.5405449,30.9844189 61.956644,27.9558424 61.1986997,27.1247845 L61.1420526,27.0159281 L60.99,26.9018097 C61.3891796,35.4629892 56.0610433,42.1489442 55.4213622,42.5353681 C61.6783777,42.1489442 67.1890433,39.0868229 70.834,34.5010405 C69.0650217,33.262182 64.7012105,33.8308006 64.7012105,33.8308006" id="Fill-18" fill="#FEFEFE" mask="url(#mask-4)"></path>
                    </g>
                </g>
                <text id="UNIQUE-FULL-SERVICE" font-family="IndustryInc-Base, Industry Inc" font-size="11" font-weight="normal" fill="#FFFFFF">
                    <tspan x="1.602" y="85">UNIQUE FULL SERVICE </tspan>
                    <tspan x="0.3645" y="96">FISHING EXPERIENCES</tspan>
                </text>
            </g>
        </g>
    </g>
</svg>