<?xml version="1.0" encoding="utf-8"?>
<!-- Generator: Adobe Illustrator 19.0.0, SVG Export Plug-In . SVG Version: 6.00 Build 0)  -->
<svg version="1.1" id="Layer_1" xmlns="http://www.w3.org/2000/svg" xmlns:xlink="http://www.w3.org/1999/xlink" x="0px" y="0px"
	 viewBox="-271 272.9 176.8 176.1" style="enable-background:new -271 272.9 176.8 176.1;" xml:space="preserve">
<style type="text/css">
	.st0{fill:#EDEDED;}
	.st1{stroke:#000000;stroke-miterlimit:10;}
	.st2{stroke:#000000;stroke-width:2;stroke-miterlimit:10;}
</style>
<path class="st0" d="M-603.1,495.3c0.1-0.5,0.1-1.1,0.3-1.6c0.9-4.2,3.5-7.7,6.9-9.8c15.4-47.4,67.3-83.7,116.5-89.1
	c5.6-1.2,5.7-13.2-3.9-12c-58.1,6.3-116.7,52.1-129.3,111.8c2-0.8,4.2-1,6.5-0.5C-605.1,494.3-604,494.8-603.1,495.3L-603.1,495.3z"
	/>
<g>
	<path d="M-468.3,489.5c0-6.1-3.3-11.2-7.9-12.9v-79.7c2.8-1.9,4.3-5.6,3.7-9.5c-0.7-4.5-4.5-8.6-11.3-7.8
		c-28.4,3.1-57.3,15.4-81.2,34.8c-0.1,0.1-0.1,0.1-0.2,0.2l-0.1,0.1c-1.4,1.1-1.7,3.2-0.5,4.6c1.1,1.4,3.2,1.7,4.6,0.5
		c0.1-0.1,0.2-0.1,0.2-0.2l0.1-0.1l0,0c23-18.6,50.6-30.4,77.8-33.4l0,0c2.4-0.3,3.8,0.5,4.1,2.4c0.2,1.4-0.3,2.9-1.1,3.1
		c-24.9,2.7-50.5,13.2-72.3,29.4c-22.3,16.6-38.7,38.2-46.4,60.9c-3.1,2.2-5.5,5.4-6.8,9.1h-0.1c-1-0.2-1.9-0.3-2.9-0.3
		c4.9-19,14.8-37.3,29-53.4c1.2-1.3,1.1-3.4-0.3-4.6c-1.3-1.2-3.4-1.1-4.6,0.3c-15.7,17.7-26.4,38.3-31.2,59.4
		c-3.6,1.9-6.4,5.4-7.3,9.7l-5.5,25c-0.8,3.8-0.1,7.7,2,11c2.1,3.3,5.3,5.5,9.1,6.4c1,0.2,2.1,0.3,3.1,0.3c6.7,0,12.7-4.6,14.2-11.4
		l4.2-19.4c1.2,0.6,2.5,1,3.9,1.3c1.3,0.3,2.7,0.4,4,0.4c2.7,0,5.3-0.6,7.7-1.7l5.2,7.5c-1,1.3-1.7,2.8-2.1,4.5
		c-0.6,2.9-0.1,6,1.5,8.5c1.6,2.5,4.1,4.3,7.1,4.9c0.8,0.2,1.6,0.3,2.4,0.3c5.3,0,9.9-3.7,11-8.9c0.6-2.9,0.1-6-1.5-8.5
		c-1.6-2.5-4.2-4.3-7.1-4.9c-0.8-0.2-1.6-0.3-2.4-0.3c-1.3,0-2.5,0.2-3.6,0.6l-5.1-7.4c2.5-2.5,4.4-5.7,5.2-9.3
		c1.1-4.9,0.2-9.8-2.5-14c-1.1-1.7-2.5-3.2-4-4.5l93.4-80.4v74.7c-4.6,1.7-7.9,6.8-7.9,12.9c0,6.1,3.3,11.2,7.9,12.9v14.6
		c0,1.6-1.3,3-3,3s-3-1.3-3-3v-2.3c0-1.8-1.5-3.3-3.3-3.3c-1.8,0-3.3,1.5-3.3,3.3v2.3c0,5.2,4.2,9.5,9.5,9.5c5.2,0,9.5-4.2,9.5-9.5
		v-14.6C-471.6,500.7-468.3,495.5-468.3,489.5z M-565,523.6c1.2,0.3,2.3,1,3,2.1s0.9,2.4,0.6,3.6c-0.5,2.2-2.4,3.8-4.7,3.8
		c-0.3,0-0.7,0-1-0.1c-1.3-0.3-2.3-1-3-2.1c-0.7-1.1-0.9-2.4-0.6-3.6c0.5-2.2,2.4-3.8,4.7-3.8C-565.7,523.5-565.3,523.6-565,523.6z
		 M-606.2,531.9c-0.9,4.3-5.2,7.1-9.6,6.1c-2.1-0.5-3.9-1.7-5-3.5c-1.2-1.8-1.6-4-1.1-6l5.5-25c0.6-2.7,2.5-4.8,4.8-5.7
		c0.1,0,0.1-0.1,0.2-0.1c1.4-0.5,3-0.7,4.5-0.3c0.2,0,0.3,0.1,0.5,0.1c0.1,3.4,1.1,6.7,3,9.6c0.6,1,1.3,1.9,2.1,2.7L-606.2,531.9z
		 M-575.9,499.5c-0.4,2-1.3,3.7-2.6,5.2l-6.6-9.6c-1-1.5-3-1.9-4.5-0.8c-1.5,1-1.9,3-0.8,4.5l6.6,9.6c-1.2,0.4-2.5,0.7-3.9,0.7
		c-0.9,0-1.7-0.1-2.6-0.3c-3.2-0.7-5.9-2.6-7.6-5.3c-1.5-2.3-2.1-5.1-1.9-7.8c0,0,0,0,0-0.1c0-0.4,0.1-0.9,0.2-1.3
		c1.2-5.5,6.2-9.5,11.9-9.5c0.9,0,1.7,0.1,2.6,0.3c0.8,0.2,1.5,0.4,2.2,0.7c0,0,0,0,0.1,0c2.2,0.9,4,2.5,5.3,4.6
		C-575.8,493.1-575.2,496.4-575.9,499.5z M-583.8,478.7c-1.3-0.3-2.7-0.4-4-0.4c-0.9,0-1.8,0.1-2.7,0.2
		c15.4-38,56.3-69.9,100.3-78.7l-92.1,79.3C-582.8,479-583.3,478.8-583.8,478.7z M-479.4,496.4c-2.5,0-4.7-3.3-4.7-7
		c0-3.7,2.2-7,4.7-7s4.7,3.3,4.7,7C-474.8,493.2-477,496.4-479.4,496.4z"/>
	<path d="M-572.8,429.2c0.8,0,1.7-0.3,2.3-1l0.1-0.1c1.3-1.3,1.3-3.3,0-4.6c-1.3-1.3-3.3-1.3-4.6,0l-0.1,0.1c-1.3,1.3-1.3,3.3,0,4.6
		C-574.4,428.9-573.6,429.2-572.8,429.2z"/>
</g>
<g>
	<g>
		<path class="st1" d="M-671.3,475.4c-10.8-14.2-26-23.3-43.1-23.8c-4.5-3.7-16.3-8.6-22.7-8.6c-3,0-4.8,1.1-4.1,3.9
			c0.8,3.4,1.4,6.9,1.8,10.5l-11.5,7.8c-1,0.9-2.3,1.3-3.5,1.3s-2.5-0.4-3.5-1.3c-4.4-3.5-11.1-7.9-14.5-7.9c-1.8,0-2.7,1.2-1.9,4.2
			c1.3,5.1,2.1,10.5,2.1,16.1s-0.8,10.9-2.1,16.1c-0.3,1.2,0,2.6,0.9,3.4c0.4,0.4,0.9,0.6,1.6,0.6c3.8,0,11.5-5.8,14-7.8
			c1-0.8,2.3-1.3,3.5-1.3c1.2,0,2.5,0.4,3.5,1.3c1.5,1.3,3.2,2.6,4.8,3.7c-0.9,0.7-1.7,1.7-2.2,2.8c-1.9,4.1,0.8,7,3.9,8.6
			c1.8,1,3.8,1.6,5.6,1.6c2.2,0,4.2-0.9,5.3-3.1l1.4-2.4c4.4,1.1,10.5,2.4,16.4,2.4c17.6,0,33.5-9.2,44.6-23.8
			C-670.4,478.4-670.4,476.6-671.3,475.4z M-715.8,497.5c-5.3,0-11.1-1.3-15-2.2c-0.5-0.1-0.9-0.2-1.4-0.2c-2.1,0-4.1,1.1-5.1,3
			l-1.4,2.4c0,0-0.1,0.1-0.1,0.2l0,0c-0.8,0-1.8-0.3-2.8-0.9c-0.7-0.3-1.1-0.7-1.3-0.9c0.1-0.3,0.3-0.5,0.6-0.7
			c1.4-1.2,2.3-2.9,2.2-4.8c-0.1-1.9-1-3.6-2.5-4.6c-1.7-1.2-3.1-2.3-4.4-3.4c-2.1-1.7-4.7-2.6-7.3-2.6s-5.2,0.9-7.2,2.6
			c-2,1.6-4.1,3.1-5.8,4.2c0.7-4,1-8,1-11.9c0-3.9-0.3-7.8-1-11.8c1.7,1.1,3.8,2.5,5.8,4.1c2.1,1.7,4.6,2.6,7.2,2.6
			c2.5,0,5-0.9,7.1-2.4l11.4-7.7c1.8-1.2,2.8-3.3,2.6-5.4c-0.2-2.6-0.6-5.1-1.1-7.7c5.3,1,13.4,4.5,16.5,7c1,0.8,2.3,1.3,3.6,1.3
			c14.1,0.4,27.4,7.5,37.4,20C-687.5,490.4-701.2,497.5-715.8,497.5z"/>
	</g>
</g>
<g>
	<g>
		<path class="st1" d="M-723.9,402.5c-14.3,0-27.7,4.3-38.8,11.6c-11.1-13.1-23.5-27.9-23.8-28.1c-3.5-3.5-8-5.2-12.6-5.2
			c-4.5,0-9.1,1.7-12.6,5.2c-6.9,6.9-6.9,18.2,0,25.1c0.3,0.3,16,13.3,28.3,23.5c-7.4,11.2-11.7,24.6-11.7,39
			c0,39.3,31.8,71.1,71.1,71.1c39.3,0,71.1-31.8,71.1-71.1S-684.6,402.5-723.9,402.5z M-807.6,406.8c-2.2-2.2-3.4-5.1-3.4-8.3
			s1.2-6.1,3.5-8.4c2.2-2.2,5.2-3.5,8.4-3.5c3.1,0,6,1.2,8.3,3.3c0.9,1,5.6,6.6,11.5,13.6c3.7,4.4,7.8,9.2,11.8,13.9
			c-4.6,3.6-8.7,7.7-12.3,12.2C-791.6,420.1-805.9,408.2-807.6,406.8z M-723.9,538.8c-35.9,0-65.2-29.2-65.2-65.2
			s29.2-65.2,65.2-65.2s65.2,29.2,65.2,65.2S-688,538.8-723.9,538.8z"/>
	</g>
</g>
<g>
	<g>
		<circle class="st1" cx="-693.4" cy="475.8" r="5.2"/>
	</g>
</g>
<g>
	<g>
		<circle class="st1" cx="-799.2" cy="398.4" r="5.2"/>
	</g>
</g>
<path class="st2" d="M-240.8,303.4c2.1-1.6,3.7-2.8,5.4-4c12.5-9,26.5-12.9,41.7-12.6c2.1,0,3,0.8,2.9,2.9c-0.1,4.1,0,8.2,0,12.1
	c5.8,1,11.3,2.1,17,3.1c0.3-0.7,0.7-1.6,1.1-2.5c5.7-12.9,19.7-21,33-19.2c15.3,2.1,26.5,12.8,28.6,27.5c0.3,1.9,0.8,3.1,2.8,4
	c3.5,1.6,5.3,4.7,5.2,8.5c-0.1,3.9-1.9,6.9-5.5,8.3c-1.9,0.7-2.1,1.8-2.1,3.5c0,18.7,0.1,37.4,0,56.2c0,7.1-6.1,11.6-12.5,9.5
	c-3.7-1.3-6.3-4.6-6.4-8.6c-0.1-4.9-0.1-9.8,0-14.7c0-0.8,0.6-2,1.2-2.4c0.4-0.3,1.7,0.2,2.3,0.8c2.9,2.6,5.6,5.4,8.7,8.4
	c-1,1-1.8,1.8-3,2.9c-1.7-2-3.2-3.8-4.7-5.6c-0.2,0.1-0.4,0.2-0.5,0.3c0,4-0.4,8,0.1,11.9c0.3,2.8,3.6,4.3,6.4,3.9
	c2.7-0.4,4.7-2.7,4.7-5.5c0.1-5.9,0-11.8,0-17.7c0-13.2,0-26.4,0-39.5c0-1.5-0.2-2.4-1.9-3c-3.8-1.6-5.8-4.7-5.7-8.8
	c0-4,2-6.9,5.7-8.5c1.2-0.5,1.9-1,1.7-2.5c-1.5-12.8-12.3-23.5-25.5-25c-13.1-1.5-26,6.7-30.1,19c0,0.1,0,0.2,0,0.6
	c0.7,0.3,1.4,0.7,2.2,1.1c12,5.1,21.7,13,29.4,23.6c0.8,1.1,1.8,2,2.9,2.7c5.1,2.9,7.4,8.7,4.8,14c-1.7,3.6-4,6.9-6.4,10.1
	c-1.1,1.5-1.6,2.6-1.1,4.4c0.5,1.6,0.6,3.4,0.8,5.1c0.3,2.5-0.7,3.4-3.2,3.4c-9.6-0.1-19.3,0-28.9,0c-0.9,0-1.8,0-2.4,0l-8.5-0.4
	c-3.3-0.2-6.7-0.1-9.5-0.1c-1.2,4.1-1.8,8.2-3.5,11.6c-5.1,10.2-13.6,15.2-25,15.1c-2,0-2.7-0.8-2.7-2.8c0.1-5.7,0-11.4,0-17.7
	c-10.8,5.6-18.8,13.3-24.8,23.6c5.4,4.9,11.6,8,18.5,9.4c11.9,2.4,22.7-0.1,32.5-7.3c0.9-0.6,2.1-0.8,3.1-1.2
	c0.4,1.1,1.1,2.2,1.1,3.4c0.1,10.3,0.1,20.5,0,30.8c0,3.5-0.3,3.8-3.7,3.8c-35.2-0.1-64.5-26.2-68.1-61.3c-1.3-12.6-1.5-25.4,0.9-38
	c2.4-12.3,8.1-23,16.7-32.2c0.6-0.7,1.2-1.3,1.8-2L-240.8,303.4z M-142.5,332.7c-0.2-0.5-0.3-0.8-0.5-1c-0.4-0.6-0.9-1.2-1.3-1.7
	c-16.4-19.1-37.1-27.1-62-23c-33.1,5.5-56.6,36.6-52.9,69.7c0.9,8,4.4,15,10.2,21.2c4.9-7.9,10.9-14.5,18.4-19.7
	c7.4-5.1,15.6-8.5,24.7-10.3c-16.2-9.5-18.3-26.4-13-37.8c6-13,20.1-17.8,27.6-16.1c0,1.1,0,2.1,0,3c-2.9,0.4-5.6,0.6-8.2,1.3
	c-11.9,3.2-19.8,14.9-18.2,26.9c1.6,12.5,12,21.8,24.6,21.9c16.4,0.1,32.7,0,49.1,0c0.8,0,1.6-0.1,2.4-0.1c0-7.1-5.1-15.5-10.9-18.4
	c-10.8,8.1-20.7,9.2-30.2,3.5c-8.1-4.8-13.1-14.6-11.8-22.9c1.1,0,2.2,0,3.5,0c0,0.8,0,1.5,0,2.1c0.3,9.4,6.5,17.4,15.4,19.9
	c9,2.5,18.4-1.1,23.3-9.2C-149.8,337.7-147.6,333.7-142.5,332.7z M-252.4,400.3c6.1,18.8,40.7,39.7,57.6,35c0-9.3,0-18.6,0-28.1
	C-215.8,419-234.9,416.5-252.4,400.3z M-194.9,290.8c-35-1.8-62.5,27.7-63.9,54.4c12.4-27.3,33.7-41.8,63.9-43.4
	C-194.9,298.2-194.9,294.6-194.9,290.8z M-194.9,370.8c-6.2-0.2-11.9,0.9-17.6,2.6c-5.2,1.6-5.2,1.6-5.2,6.9c0,2.1,0,4.2,0,6.3
	c0,2.3,0,4.6,0,6.9C-205.2,393.6-194.8,383.2-194.9,370.8z M-140,355.9c1.8-3.1,4-6.2,5.6-9.6c1.6-3.3,0.2-7.2-2.8-9
	c-3.1-1.8-7.2-0.9-9.3,2.3c-1.2,1.8-2.2,3.7-3.1,5.3C-146.4,348.6-143.3,352-140,355.9z M-107,323.2c0.1-3.2-2.6-5.9-5.8-5.9
	c-3.2,0-5.7,2.5-5.7,5.7c0,3.1,2.5,5.7,5.7,5.8C-109.6,328.9-107.1,326.4-107,323.2z"/>
<path class="st2" d="M-169.9,338.2c-4.3,0-7.6-3.1-7.6-7.5c0-4.3,3.2-7.6,7.5-7.5c4.2,0,7.4,3.1,7.5,7.3
	C-162.4,334.9-165.6,338.1-169.9,338.2z M-169.9,334.6c2.1-0.1,3.8-1.8,3.8-3.9c0-2-1.8-3.8-3.8-3.8c-2.2,0-4,1.9-3.9,4
	C-173.8,332.9-172,334.6-169.9,334.6z"/>
</svg>
