<?xml version="1.0" encoding="utf-8"?>
<!-- Generator: Adobe Illustrator 19.0.0, SVG Export Plug-In . SVG Version: 6.00 Build 0)  -->
<svg version="1.1" id="Layer_1" xmlns="http://www.w3.org/2000/svg" xmlns:xlink="http://www.w3.org/1999/xlink" x="0px" y="0px"
	 viewBox="-139.6 94.7 176.8 176.1" style="enable-background:new -139.6 94.7 176.8 176.1;" xml:space="preserve">
<style type="text/css">
	.st0{fill:#EDEDED;}
	.st1{stroke:#000000;stroke-miterlimit:10;}
	.st2{stroke:#000000;stroke-width:2;stroke-miterlimit:10;}
</style>
<path class="st0" d="M-332.1,222.4c0.1-0.5,0.1-1.1,0.3-1.6c0.9-4.2,3.5-7.7,6.9-9.8c15.4-47.4,67.3-83.7,116.5-89.1
	c5.6-1.2,5.7-13.2-3.9-12c-58.1,6.3-116.7,52.1-129.3,111.8c2-0.8,4.2-1,6.5-0.5C-334.1,221.4-333,221.9-332.1,222.4L-332.1,222.4z"
	/>
<g>
	<path d="M-197.3,216.6c0-6.1-3.3-11.2-7.9-12.9V124c2.8-1.9,4.3-5.6,3.7-9.5c-0.7-4.5-4.5-8.6-11.3-7.8
		c-28.4,3.1-57.3,15.4-81.2,34.8c-0.1,0.1-0.1,0.1-0.2,0.2l-0.1,0.1c-1.4,1.1-1.7,3.2-0.5,4.6c1.1,1.4,3.2,1.7,4.6,0.5
		c0.1-0.1,0.2-0.1,0.2-0.2l0.1-0.1c0,0,0,0,0,0c23-18.6,50.6-30.4,77.8-33.4c0,0,0,0,0,0c2.4-0.3,3.8,0.5,4.1,2.4
		c0.2,1.4-0.3,2.9-1.1,3.1c-24.9,2.7-50.5,13.2-72.3,29.4c-22.3,16.6-38.7,38.2-46.4,60.9c-3.1,2.2-5.5,5.4-6.8,9.1c0,0-0.1,0-0.1,0
		c-1-0.2-1.9-0.3-2.9-0.3c4.9-19,14.8-37.3,29-53.4c1.2-1.3,1.1-3.4-0.3-4.6c-1.3-1.2-3.4-1.1-4.6,0.3
		c-15.7,17.7-26.4,38.3-31.2,59.4c-3.6,1.9-6.4,5.4-7.3,9.7l-5.5,25c-0.8,3.8-0.1,7.7,2,11c2.1,3.3,5.3,5.5,9.1,6.4
		c1,0.2,2.1,0.3,3.1,0.3c6.7,0,12.7-4.6,14.2-11.4l4.2-19.4c1.2,0.6,2.5,1,3.9,1.3c1.3,0.3,2.7,0.4,4,0.4c2.7,0,5.3-0.6,7.7-1.7
		l5.2,7.5c-1,1.3-1.7,2.8-2.1,4.5c-0.6,2.9-0.1,6,1.5,8.5c1.6,2.5,4.1,4.3,7.1,4.9c0.8,0.2,1.6,0.3,2.4,0.3c5.3,0,9.9-3.7,11-8.9
		c0.6-2.9,0.1-6-1.5-8.5c-1.6-2.5-4.2-4.3-7.1-4.9c-0.8-0.2-1.6-0.3-2.4-0.3c-1.3,0-2.5,0.2-3.6,0.6l-5.1-7.4
		c2.5-2.5,4.4-5.7,5.2-9.3c1.1-4.9,0.2-9.8-2.5-14c-1.1-1.7-2.5-3.2-4-4.5l93.4-80.4v74.7c-4.6,1.7-7.9,6.8-7.9,12.9
		c0,6.1,3.3,11.2,7.9,12.9v14.6c0,1.6-1.3,3-3,3s-3-1.3-3-3v-2.3c0-1.8-1.5-3.3-3.3-3.3c-1.8,0-3.3,1.5-3.3,3.3v2.3
		c0,5.2,4.2,9.5,9.5,9.5c5.2,0,9.5-4.2,9.5-9.5v-14.6C-200.6,227.8-197.3,222.6-197.3,216.6z M-294,250.7c1.2,0.3,2.3,1,3,2.1
		c0.7,1.1,0.9,2.4,0.6,3.6c-0.5,2.2-2.4,3.8-4.7,3.8c-0.3,0-0.7,0-1-0.1c-1.3-0.3-2.3-1-3-2.1c-0.7-1.1-0.9-2.4-0.6-3.6
		c0.5-2.2,2.4-3.8,4.7-3.8C-294.7,250.6-294.3,250.7-294,250.7z M-335.2,259c-0.9,4.3-5.2,7.1-9.6,6.1c-2.1-0.5-3.9-1.7-5-3.5
		c-1.2-1.8-1.6-4-1.1-6l5.5-25c0.6-2.7,2.5-4.8,4.8-5.7c0.1,0,0.1-0.1,0.2-0.1c1.4-0.5,3-0.7,4.5-0.3c0.2,0,0.3,0.1,0.5,0.1
		c0.1,3.4,1.1,6.7,3,9.6c0.6,1,1.3,1.9,2.1,2.7L-335.2,259z M-304.9,226.6c-0.4,2-1.3,3.7-2.6,5.2l-6.6-9.6c-1-1.5-3-1.9-4.5-0.8
		c-1.5,1-1.9,3-0.8,4.5l6.6,9.6c-1.2,0.4-2.5,0.7-3.9,0.7c-0.9,0-1.7-0.1-2.6-0.3c-3.2-0.7-5.9-2.6-7.6-5.3
		c-1.5-2.3-2.1-5.1-1.9-7.8c0,0,0,0,0-0.1c0-0.4,0.1-0.9,0.2-1.3c1.2-5.5,6.2-9.5,11.9-9.5c0.9,0,1.7,0.1,2.6,0.3
		c0.8,0.2,1.5,0.4,2.2,0.7c0,0,0,0,0.1,0c2.2,0.9,4,2.5,5.3,4.6C-304.8,220.2-304.2,223.5-304.9,226.6z M-312.8,205.8
		c-1.3-0.3-2.7-0.4-4-0.4c-0.9,0-1.8,0.1-2.7,0.2c15.4-38,56.3-69.9,100.3-78.7l-92.1,79.3C-311.8,206.1-312.3,205.9-312.8,205.8z
		 M-208.4,223.5c-2.5,0-4.7-3.3-4.7-7c0-3.7,2.2-7,4.7-7c2.5,0,4.7,3.3,4.7,7C-203.8,220.3-206,223.5-208.4,223.5z"/>
	<path d="M-301.8,156.3c0.8,0,1.7-0.3,2.3-1l0.1-0.1c1.3-1.3,1.3-3.3,0-4.6s-3.3-1.3-4.6,0l-0.1,0.1c-1.3,1.3-1.3,3.3,0,4.6
		C-303.4,156-302.6,156.3-301.8,156.3z"/>
</g>
<g>
	<g>
		<path class="st1" d="M-400.3,202.5c-10.8-14.2-26-23.3-43.1-23.8c-4.5-3.7-16.3-8.6-22.7-8.6c-3,0-4.8,1.1-4.1,3.9
			c0.8,3.4,1.4,6.9,1.8,10.5l-11.5,7.8c-1,0.9-2.3,1.3-3.5,1.3c-1.2,0-2.5-0.4-3.5-1.3c-4.4-3.5-11.1-7.9-14.5-7.9
			c-1.8,0-2.7,1.2-1.9,4.2c1.3,5.1,2.1,10.5,2.1,16.1c0,5.6-0.8,10.9-2.1,16.1c-0.3,1.2,0,2.6,0.9,3.4c0.4,0.4,0.9,0.6,1.6,0.6
			c3.8,0,11.5-5.8,14-7.8c1-0.8,2.3-1.3,3.5-1.3c1.2,0,2.5,0.4,3.5,1.3c1.5,1.3,3.2,2.6,4.8,3.7c-0.9,0.7-1.7,1.7-2.2,2.8
			c-1.9,4.1,0.8,7,3.9,8.6c1.8,1,3.8,1.6,5.6,1.6c2.2,0,4.2-0.9,5.3-3.1l1.4-2.4c4.4,1.1,10.5,2.4,16.4,2.4
			c17.6,0,33.5-9.2,44.6-23.8C-399.4,205.5-399.4,203.7-400.3,202.5z M-444.8,224.6c-5.3,0-11.1-1.3-15-2.2
			c-0.5-0.1-0.9-0.2-1.4-0.2c-2.1,0-4.1,1.1-5.1,3l-1.4,2.4c0,0-0.1,0.1-0.1,0.2c0,0,0,0,0,0c-0.8,0-1.8-0.3-2.8-0.9
			c-0.7-0.3-1.1-0.7-1.3-0.9c0.1-0.3,0.3-0.5,0.6-0.7c1.4-1.2,2.3-2.9,2.2-4.8c-0.1-1.9-1-3.6-2.5-4.6c-1.7-1.2-3.1-2.3-4.4-3.4
			c-2.1-1.7-4.7-2.6-7.3-2.6c-2.6,0-5.2,0.9-7.2,2.6c-2,1.6-4.1,3.1-5.8,4.2c0.7-4,1-8,1-11.9c0-3.9-0.3-7.8-1-11.8
			c1.7,1.1,3.8,2.5,5.8,4.1c2.1,1.7,4.6,2.6,7.2,2.6c2.5,0,5-0.9,7.1-2.4l11.4-7.7c1.8-1.2,2.8-3.3,2.6-5.4
			c-0.2-2.6-0.6-5.1-1.1-7.7c5.3,1,13.4,4.5,16.5,7c1,0.8,2.3,1.3,3.6,1.3c14.1,0.4,27.4,7.5,37.4,20
			C-416.5,217.5-430.2,224.6-444.8,224.6z"/>
	</g>
</g>
<g>
	<g>
		<path class="st1" d="M-452.9,129.6c-14.3,0-27.7,4.3-38.8,11.6c-11.1-13.1-23.5-27.9-23.8-28.1c-3.5-3.5-8-5.2-12.6-5.2
			c-4.5,0-9.1,1.7-12.6,5.2c-6.9,6.9-6.9,18.2,0,25.1c0.3,0.3,16,13.3,28.3,23.5c-7.4,11.2-11.7,24.6-11.7,39
			c0,39.3,31.8,71.1,71.1,71.1s71.1-31.8,71.1-71.1S-413.6,129.6-452.9,129.6z M-536.6,133.9c-2.2-2.2-3.4-5.1-3.4-8.3
			c0-3.2,1.2-6.1,3.5-8.4c2.2-2.2,5.2-3.5,8.4-3.5c3.1,0,6,1.2,8.3,3.3c0.9,1,5.6,6.6,11.5,13.6c3.7,4.4,7.8,9.2,11.8,13.9
			c-4.6,3.6-8.7,7.7-12.3,12.2C-520.6,147.2-534.9,135.3-536.6,133.9z M-452.9,265.9c-35.9,0-65.2-29.2-65.2-65.2
			s29.2-65.2,65.2-65.2s65.2,29.2,65.2,65.2S-417,265.9-452.9,265.9z"/>
	</g>
</g>
<g>
	<g>
		<circle class="st1" cx="-422.4" cy="202.9" r="5.2"/>
	</g>
</g>
<g>
	<g>
		<circle class="st1" cx="-528.2" cy="125.5" r="5.2"/>
	</g>
</g>
<path class="st2" d="M1.3,229.1c3.7-2.9,3.7-2.9,7.5,0.9c6.4,6.4,12.7,12.8,19.1,19c1.8,1.7,1.8,3,0,4.7c-2.2,1.9-4.2,4.1-6.2,6.1
	c-1.2,1.2-2.3,1.2-3.5,0c-7.3-7.3-14.6-14.7-22-22c-1.3-1.3-1.2-2.5,0.1-3.7c0.6-0.5,1.1-1.2,1.5-1.6c-4.8-4.8-9.5-9.5-15-15
	c-0.5,0.8-1.1,2.1-2.1,3c-1.3,1.2-1.4,2.1-0.5,3.7c3.9,7.5,0.1,16.7-8.1,18.7c-2.9,0.7-6.4,0.3-9.2-0.7c-2.4-0.9-3.6-0.7-4.9,1.5
	c0.4,0.6,0.8,1.2,1.5,2.2c-0.8,0.7-1.5,1.4-2.6,2.4c-2.2-2.3-4.1-4.3-6.2-6.5c0.8-0.9,1.5-1.6,2.3-2.4c0.7,0.5,1.4,0.9,2.1,1.3
	c1.7-0.3,2.6-2.4,1.8-4.1c-3.9-7.8-0.2-16.9,8-18.9c2.9-0.7,6.4-0.2,9.2,0.8c2.3,0.8,3.4,0.6,4.8-1c0.6-0.7,1.6-1.2,2.5-1.9
	c-0.9-1-1.4-1.7-1.9-2.2c-7.8-7.8-15.5-15.6-23.4-23.3c-1-0.9-2.6-1.6-4-1.7c-3.3-0.2-6.7-0.1-9.5-0.1c-1.2,4.1-1.8,8.2-3.5,11.6
	c-5.1,10.2-13.6,15.2-25,15.1c-2,0-2.7-0.8-2.7-2.8c0.1-5.7,0-11.4,0-17.7c-10.8,5.6-18.8,13.3-24.8,23.6c5.4,4.9,11.6,8,18.5,9.4
	c11.9,2.4,22.7-0.1,32.5-7.3c0.9-0.6,2.1-0.8,3.1-1.2c0.4,1.1,1.1,2.2,1.1,3.4c0.1,10.3,0.1,20.5,0,30.8c0,3.5-0.3,3.8-3.7,3.8
	c-35.2-0.1-64.5-26.2-68.1-61.3c-1.3-12.6-1.5-25.4,0.9-38c2.4-12.3,8.1-23,16.7-32.2c0.6-0.7,1.2-1.3,1.8-2
	c-7-6.9-13.8-13.8-21-20.9c1.2-0.9,2-1.6,2.8-2.2c6.8,6.8,13.7,13.7,20.7,20.7c2.1-1.6,3.7-2.8,5.4-4c12.5-9,26.5-12.9,41.7-12.6
	c2.1,0,3,0.8,2.9,2.9c-0.1,4.1,0,8.2,0,12.1c5.8,1,11.3,2.1,17,3.1c0.3-0.7,0.7-1.6,1.1-2.5c5.7-12.9,19.7-21,33-19.2
	c15.3,2.1,26.5,12.8,28.6,27.5c0.3,1.9,0.8,3.1,2.8,4c3.5,1.6,5.3,4.7,5.2,8.5c-0.1,3.9-1.9,6.9-5.5,8.3c-1.9,0.7-2.1,1.8-2.1,3.5
	c0,18.7,0.1,37.4,0,56.2c0,7.1-6.1,11.6-12.5,9.5c-3.7-1.3-6.3-4.6-6.4-8.6c-0.1-4.9-0.1-9.8,0-14.7c0-0.8,0.6-2,1.2-2.4
	c0.4-0.3,1.7,0.2,2.3,0.8c2.9,2.6,5.6,5.4,8.7,8.4c-1,1-1.8,1.8-3,2.9c-1.7-2-3.2-3.8-4.7-5.6c-0.2,0.1-0.4,0.2-0.5,0.3
	c0,4-0.4,8,0.1,11.9c0.3,2.8,3.6,4.3,6.4,3.9c2.7-0.4,4.7-2.7,4.7-5.5c0.1-5.9,0-11.8,0-17.7c0-13.2,0-26.4,0-39.5
	c0-1.5-0.2-2.4-1.9-3c-3.8-1.6-5.8-4.7-5.7-8.8c0-4,2-6.9,5.7-8.5c1.2-0.5,1.9-1,1.7-2.5c-1.5-12.8-12.3-23.5-25.5-25
	c-13.1-1.5-26,6.7-30.1,19c0,0.1,0,0.2,0,0.6c0.7,0.3,1.4,0.7,2.2,1.1c12,5.1,21.7,13,29.4,23.6c0.8,1.1,1.8,2,2.9,2.7
	c5.1,2.9,7.4,8.7,4.8,14c-1.7,3.6-4,6.9-6.4,10.1c-1.1,1.5-1.6,2.6-1.1,4.4c0.5,1.6,0.6,3.4,0.8,5.1c0.3,2.5-0.7,3.4-3.2,3.4
	c-9.6-0.1-19.3,0-28.9,0c-0.9,0-1.8,0-2.4,0C-25.9,201.9-12.4,215.4,1.3,229.1z M-9.8,150.4c-0.2-0.5-0.3-0.8-0.5-1
	c-0.4-0.6-0.9-1.2-1.3-1.7c-16.4-19.1-37.1-27.1-62-23c-33.1,5.5-56.6,36.6-52.9,69.7c0.9,8,4.4,15,10.2,21.2
	c4.9-7.9,10.9-14.5,18.4-19.7c7.4-5.1,15.6-8.5,24.7-10.3c-16.2-9.5-18.3-26.4-13-37.8c6-13,20.1-17.8,27.6-16.1c0,1.1,0,2.1,0,3
	c-2.9,0.4-5.6,0.6-8.2,1.3c-11.9,3.2-19.8,14.9-18.2,26.9c1.6,12.5,12,21.8,24.6,21.9c16.4,0.1,32.7,0,49.1,0c0.8,0,1.6-0.1,2.4-0.1
	c0-7.1-5.1-15.5-10.9-18.4c-10.8,8.1-20.7,9.2-30.2,3.5c-8.1-4.8-13.1-14.6-11.8-22.9c1.1,0,2.2,0,3.5,0c0,0.8,0,1.5,0,2.1
	c0.3,9.4,6.5,17.4,15.4,19.9c9,2.5,18.4-1.1,23.3-9.2C-17.1,155.4-14.9,151.4-9.8,150.4z M-119.7,218c6.1,18.8,40.7,39.7,57.6,35
	c0-9.3,0-18.6,0-28.1C-83.1,236.7-102.2,234.2-119.7,218z M-62.2,108.5c-35-1.8-62.5,27.7-63.9,54.4c12.4-27.3,33.7-41.8,63.9-43.4
	C-62.2,115.9-62.2,112.3-62.2,108.5z M-62.2,188.5c-6.2-0.2-11.9,0.9-17.6,2.6c-5.2,1.6-5.2,1.6-5.2,6.9c0,2.1,0,4.2,0,6.3
	c0,2.3,0,4.6,0,6.9C-72.5,211.3-62.1,200.9-62.2,188.5z M-36.8,238.2c4.4,3,9.6,2.1,12.8-1.7c3.2-3.9,2.7-9.6-1.1-13
	c-3.7-3.3-9.2-3.3-12.9,0.1c-3.5,3.3-4.1,8.5-0.7,12.7c2.4-2.8,4.7-5.6,7.1-8.4c1.1,1.2,1.8,2,3.1,3.3
	C-31.5,233.5-34.1,235.8-36.8,238.2z M-7.3,173.6c1.8-3.1,4-6.2,5.6-9.6c1.6-3.3,0.2-7.2-2.8-9c-3.1-1.8-7.2-0.9-9.3,2.3
	c-1.2,1.8-2.2,3.7-3.1,5.3C-13.7,166.3-10.6,169.7-7.3,173.6z M7.8,243.7c4.1,4.1,8.2,8.2,12.3,12.3c1.5-1.4,3.1-2.9,4.5-4.3
	c-4.3-4.3-8.3-8.3-12.6-12.6C10.7,240.6,9.3,242.2,7.8,243.7z M25.7,140.9c0.1-3.2-2.6-5.9-5.8-5.9c-3.2,0-5.7,2.5-5.7,5.7
	c0,3.1,2.5,5.7,5.7,5.8C23.1,146.6,25.6,144.1,25.7,140.9z M9.3,236.5c-1.6-1.8-3.1-3.5-4.5-5.1c-1.7,1.7-3.3,3.2-4.9,4.7
	c1.6,1.7,3.2,3.3,4.7,4.9C6.3,239.3,7.9,237.8,9.3,236.5z"/>
<path class="st2" d="M-37.2,155.9c-4.3,0-7.6-3.1-7.6-7.5c0-4.3,3.2-7.6,7.5-7.5c4.2,0,7.4,3.1,7.5,7.3
	C-29.7,152.6-32.9,155.8-37.2,155.9z M-37.2,152.3c2.1-0.1,3.8-1.8,3.8-3.9c0-2-1.8-3.8-3.8-3.8c-2.2,0-4,1.9-3.9,4
	C-41.1,150.6-39.3,152.3-37.2,152.3z"/>
</svg>
