<?xml version="1.0" encoding="utf-8"?>
<!-- Generator: Adobe Illustrator 19.0.0, SVG Export Plug-In . SVG Version: 6.00 Build 0)  -->
<svg version="1.1" id="Layer_1" xmlns="http://www.w3.org/2000/svg" xmlns:xlink="http://www.w3.org/1999/xlink" x="0px" y="0px"
	 viewBox="-287.3 323.4 72.7 81.1" style="enable-background:new -287.3 323.4 72.7 81.1;" xml:space="preserve">
<style type="text/css">
	.st0{fill:#FFFFFF;}
	.st1{stroke:#000000;stroke-miterlimit:10;}
</style>
<path d="M-233.2,324.2h-46.6c-3.7,0-6.7,3-6.7,6.7v18.3c0,1.7,0.6,3.3,1.7,4.5l0.4,0.5l-0.4,0.5c-1.1,1.2-1.7,2.8-1.7,4.5v38.3h60.1
	v-38.3c0-1.7-0.6-3.3-1.7-4.5l-0.4-0.5l0.4-0.5c1.1-1.2,1.7-2.8,1.7-4.5v-18.3C-226.5,327.2-229.5,324.2-233.2,324.2z M-258.3,394
	h-24.8v-9.8h24.8V394z M-258.3,380.7h-24.8v-21.5c0-1.8,1.5-3.2,3.2-3.2h21.5V380.7z M-263.9,345c0-4.1,3.3-7.4,7.4-7.4
	c4.1,0,7.4,3.3,7.4,7.4c0,4.1-3.3,7.4-7.4,7.4C-260.6,352.4-263.9,349.1-263.9,345z M-230,394h-24.8v-9.8h24.8V394z M-230,380.7
	h-24.8v-24.8h21.5c1.8,0,3.2,1.5,3.2,3.2V380.7z M-230,349.2c0,1.8-1.5,3.2-3.2,3.2h-15.2l0.8-1.2c1.3-1.8,2-4,2-6.2
	c0-6-4.9-10.9-10.9-10.9c-6,0-10.9,4.9-10.9,10.9c0,2.2,0.7,4.4,2,6.2l0.8,1.2h-15.2c-1.8,0-3.2-1.5-3.2-3.2v-18.3
	c0-1.8,1.5-3.2,3.2-3.2h46.6c1.8,0,3.2,1.5,3.2,3.2V349.2z"/>
<g>
	<circle class="st0" cx="-228.9" cy="389.1" r="12.3"/>
	<path d="M-228.9,403.2c-7.8,0-14.1-6.3-14.1-14.1s6.3-14.1,14.1-14.1c7.8,0,14.1,6.3,14.1,14.1S-221.1,403.2-228.9,403.2z
		 M-228.9,378.6c-5.8,0-10.6,4.7-10.6,10.6s4.7,10.6,10.6,10.6c5.8,0,10.6-4.7,10.6-10.6S-223.1,378.6-228.9,378.6z"/>
</g>
<path class="st1" d="M-222.1,384.6c-0.5-0.5-1.3-0.5-1.8,0l-8,8l-2.8-2.8c-0.5-0.5-1.3-0.5-1.8,0c-0.5,0.5-0.5,1.2,0,1.7l3.7,3.7
	c0.2,0.2,0.6,0.4,0.9,0.4c0,0,0,0,0,0c0.3,0,0.7-0.1,0.9-0.4l8.9-8.9C-221.6,385.9-221.6,385.1-222.1,384.6z"/>
</svg>
