<svg xmlns="http://www.w3.org/2000/svg" width="138.39" height="90.376" viewBox="0 0 138.39 90.376">
  <g id="Group_10" data-name="Group 10" transform="translate(0.169 0.169)">
    <g id="Group_9" data-name="Group 9">
      <path id="Fill_1" data-name="Fill 1" d="M118.595,89.876a19.246,19.246,0,0,1-14.81-6.952H1.61a1.613,1.613,0,0,1,0-3.226H101.6a19.325,19.325,0,0,1,.76-19.588H1.61a1.613,1.613,0,0,1,0-3.226h9.149A8.156,8.156,0,0,1,9.465,53.9a2.4,2.4,0,0,0-.137-.421V51.454l.008-.022c.057-.164.122-.35.179-.554A7.338,7.338,0,0,1,14.8,45.446a9.228,9.228,0,0,1,.957-.21l.013,0c.188-.035.409-.076.647-.125l2.344-.487-1.783-1.6c-.541-.485-1.082-.966-1.605-1.431l0,0-.036-.032-.053-.048c-1.279-1.136-2.6-2.309-3.865-3.495-.556-.519-1.066-1.1-1.606-1.71l-.025-.029q-.223-.254-.454-.513V28.588a8.547,8.547,0,0,1,2.135-4.1,7.936,7.936,0,0,1,5.946-2.191h.027c6.187.013,12.477.014,18.56.014h.11c7.612,0,14.482,0,21.481.021h.019a2.521,2.521,0,0,0,2.812-2.2c.364-1.656.822-3.338,1.266-4.965l.016-.059c.177-.647.364-1.334.54-2,.353-1.334.8-1.685,2.158-1.7.268,0,.5,0,.718,0a40.168,40.168,0,0,1,14.893,2.661,3.41,3.41,0,0,0,.5.144l.027.006.268.066,2.42.621-1.017-2.285c-.092-.208-.175-.406-.256-.6l-.018-.043-.006-.013a11.815,11.815,0,0,0-.584-1.254A13.687,13.687,0,0,0,69.135,3.3c-.816-.023-1.691-.034-2.756-.034-.743,0-1.485,0-2.111.01H64.08c-.63,0-1.282.008-1.927.008h-.546c-1.2-.005-1.944-.626-1.952-1.62A1.534,1.534,0,0,1,60.1.543,1.985,1.985,0,0,1,61.529.005h.022c.318,0,.654,0,1.028,0q.775,0,1.551,0h.011c.6,0,1.093,0,1.568,0,1.722,0,3.571.021,5.423.175a16.26,16.26,0,0,1,9.983,4.768,16.7,16.7,0,0,1,4.965,9.968,4.332,4.332,0,0,0,2.038,3.446,38.587,38.587,0,0,1,12.6,14.047c1.092,2.04,2.091,3.931,3.054,5.779a2.075,2.075,0,0,1,.282,1.576,2.068,2.068,0,0,1-1.166,1.094c-2.755,1.33-5.613,2.7-8.3,3.98l-.022.01-.025.012-3.873,1.852c-.221.105-.445.22-.661.33l-.118.06-.221.112-1,.5,3.362,8.277,6.855-3.4c.242-.12.487-.243.724-.363l.094-.047.076-.038c.616-.311,1.252-.632,1.883-.925a2.018,2.018,0,0,1,.848-.2,1.561,1.561,0,0,1,1.436.9,1.6,1.6,0,0,1-.774,2.2c-1.924.977-3.781,1.909-5.519,2.773h7.305a19.308,19.308,0,1,1,13.633,32.992Zm0-35.429a15.982,15.982,0,0,0-8.6,2.5,16.117,16.117,0,0,0,3.046,28.707,16.1,16.1,0,1,0,5.555-31.211ZM28.347,48.5c-4.521,0-8.1,0-11.591.008a4.036,4.036,0,0,0-4.143,3.905,4.123,4.123,0,0,0,3.985,4.2c.128.007.261.011.419.011l.266,0,.238,0H56.74c2.074,0,5.194,0,8.336-.011a4.355,4.355,0,0,0,3.438-1.526A4.065,4.065,0,0,0,65.068,48.5q-4.8,0-9.6,0l-11.024,0h-3.39Zm46.065,0c-.28,0-.553.019-.684.028l-1.236.059v8.005H88.713l-.67-1.662q-.2-.5-.406-1l-.169-.414c-.471-1.152-.915-2.24-1.331-3.353a2.341,2.341,0,0,0-2.382-1.686h-.062c-1.267.019-2.6.028-4.314.028l-1.355,0h-1.76l-1.358,0ZM15.285,37.086,17.637,39.2c.465.416.918.825,1.366,1.228l0,0,.219.2.019.017c1.44,1.3,2.8,2.526,4.193,3.721a3.592,3.592,0,0,0,2.206.816c11.183.016,22.874.023,34.746.023,7.5,0,15.8,0,24.677-.01a4.939,4.939,0,0,0,2.046-.467c3.046-1.429,6.077-2.879,9.007-4.282l2.043-.977c.216-.1.416-.21.628-.324l.03-.016.075-.04.222-.117,1.079-.566-.574-1.076c-.239-.448-.468-.891-.681-1.3l-.017-.032c-.492-.949-.957-1.846-1.486-2.741A37.714,37.714,0,0,0,84.722,19.976a38.076,38.076,0,0,0-17.6-5.271c-.085-.005-.168-.008-.246-.008a2.106,2.106,0,0,0-2.16,1.784c-.491,2-1.024,4.023-1.539,5.981l-.037.139q-.281,1.065-.56,2.131c-.236.9-.472,1.8-.71,2.714l-.04.154-.507,1.936-1.1,4.18h1.957l3.208,0H65.4q2.141,0,4.276,0H72.6c3.3,0,6.263,0,9.209.017a3.685,3.685,0,0,1,1.187.159,1.615,1.615,0,0,1,.994,1.751,1.739,1.739,0,0,1-1.93,1.371l-2.708.009c-8.456.031-16.089.058-23.863.067-4.086,0-8.48.006-14.248.006l-10.72,0h-.011l-10.71,0Zm32.64-11.493q-15.3,0-30.6,0a8.54,8.54,0,0,0-1.211.068,3.958,3.958,0,0,0-3.463,3.517,20.963,20.963,0,0,0-.037,2.3v.006l0,.086c.006.3.012.614.012.93v1.21H41.379c4.449,0,9.049,0,13.613-.026A2.244,2.244,0,0,0,57.1,32.418c.4-1.309.743-2.608,1.1-3.982l.022-.084.007-.029q.156-.595.318-1.209l.4-1.52Z" transform="translate(0.081 0.081)"/>
      <path id="Stroke_3" data-name="Stroke 3" d="M118.595,89.876a19.246,19.246,0,0,1-14.81-6.952H1.61a1.613,1.613,0,0,1,0-3.226H101.6a19.325,19.325,0,0,1,.76-19.588H1.61a1.613,1.613,0,0,1,0-3.226h9.149A8.156,8.156,0,0,1,9.465,53.9a2.4,2.4,0,0,0-.137-.421V51.454l.008-.022c.057-.164.122-.35.179-.554A7.338,7.338,0,0,1,14.8,45.446a9.228,9.228,0,0,1,.957-.21l.013,0c.188-.035.409-.076.647-.125l2.344-.487-1.783-1.6c-.541-.485-1.082-.966-1.605-1.431l0,0-.036-.032-.053-.048c-1.279-1.136-2.6-2.309-3.865-3.495-.556-.519-1.066-1.1-1.606-1.71l-.025-.029q-.223-.254-.454-.513V28.588a8.547,8.547,0,0,1,2.135-4.1,7.936,7.936,0,0,1,5.946-2.191h.027c6.187.013,12.477.014,18.56.014h.11c7.612,0,14.482,0,21.481.021h.019a2.521,2.521,0,0,0,2.812-2.2c.364-1.656.822-3.338,1.266-4.965l.016-.059c.177-.647.364-1.334.54-2,.353-1.334.8-1.685,2.158-1.7.268,0,.5,0,.718,0a40.168,40.168,0,0,1,14.893,2.661,3.41,3.41,0,0,0,.5.144l.027.006.268.066,2.42.621-1.017-2.285c-.092-.208-.175-.406-.256-.6l-.018-.043-.006-.013a11.815,11.815,0,0,0-.584-1.254A13.687,13.687,0,0,0,69.135,3.3c-.816-.023-1.691-.034-2.756-.034-.743,0-1.485,0-2.111.01H64.08c-.63,0-1.282.008-1.927.008h-.546c-1.2-.005-1.944-.626-1.952-1.62A1.534,1.534,0,0,1,60.1.543,1.985,1.985,0,0,1,61.529.005h.022c.318,0,.654,0,1.028,0q.775,0,1.551,0h.011c.6,0,1.093,0,1.568,0,1.722,0,3.571.021,5.423.175a16.26,16.26,0,0,1,9.983,4.768,16.7,16.7,0,0,1,4.965,9.968,4.332,4.332,0,0,0,2.038,3.446,38.587,38.587,0,0,1,12.6,14.047c1.092,2.04,2.091,3.931,3.054,5.779a2.075,2.075,0,0,1,.282,1.576,2.068,2.068,0,0,1-1.166,1.094c-2.755,1.33-5.613,2.7-8.3,3.98l-.022.01-.025.012-3.873,1.852c-.221.105-.445.22-.661.33l-.118.06-.221.112-1,.5,3.362,8.277,6.855-3.4c.242-.12.487-.243.724-.363l.094-.047.076-.038c.616-.311,1.252-.632,1.883-.925a2.018,2.018,0,0,1,.848-.2,1.561,1.561,0,0,1,1.436.9,1.6,1.6,0,0,1-.774,2.2c-1.924.977-3.781,1.909-5.519,2.773h7.305a19.308,19.308,0,1,1,13.633,32.992Zm0-35.429a15.982,15.982,0,0,0-8.6,2.5,16.117,16.117,0,0,0,3.046,28.707,16.1,16.1,0,1,0,5.555-31.211ZM28.347,48.5c-4.521,0-8.1,0-11.591.008a4.036,4.036,0,0,0-4.143,3.905,4.123,4.123,0,0,0,3.985,4.2c.128.007.261.011.419.011l.266,0,.238,0H56.74c2.074,0,5.194,0,8.336-.011a4.355,4.355,0,0,0,3.438-1.526A4.065,4.065,0,0,0,65.068,48.5q-4.8,0-9.6,0l-11.024,0h-3.39Zm46.065,0c-.28,0-.553.019-.684.028l-1.236.059v8.005H88.713l-.67-1.662q-.2-.5-.406-1l-.169-.414c-.471-1.152-.915-2.24-1.331-3.353a2.341,2.341,0,0,0-2.382-1.686h-.062c-1.267.019-2.6.028-4.314.028l-1.355,0h-1.76l-1.358,0ZM15.285,37.086,17.637,39.2c.465.416.918.825,1.366,1.228l0,0,.219.2.019.017c1.44,1.3,2.8,2.526,4.193,3.721a3.592,3.592,0,0,0,2.206.816c11.183.016,22.874.023,34.746.023,7.5,0,15.8,0,24.677-.01a4.939,4.939,0,0,0,2.046-.467c3.046-1.429,6.077-2.879,9.007-4.282l2.043-.977c.216-.1.416-.21.628-.324l.03-.016.075-.04.222-.117,1.079-.566-.574-1.076c-.239-.448-.468-.891-.681-1.3l-.017-.032c-.492-.949-.957-1.846-1.486-2.741A37.714,37.714,0,0,0,84.722,19.976a38.076,38.076,0,0,0-17.6-5.271c-.085-.005-.168-.008-.246-.008a2.106,2.106,0,0,0-2.16,1.784c-.491,2-1.024,4.023-1.539,5.981l-.037.139q-.281,1.065-.56,2.131c-.236.9-.472,1.8-.71,2.714l-.04.154-.507,1.936-1.1,4.18h1.957l3.208,0H65.4q2.141,0,4.276,0H72.6c3.3,0,6.263,0,9.209.017a3.685,3.685,0,0,1,1.187.159,1.615,1.615,0,0,1,.994,1.751,1.739,1.739,0,0,1-1.93,1.371l-2.708.009c-8.456.031-16.089.058-23.863.067-4.086,0-8.48.006-14.248.006l-10.72,0h-.011l-10.71,0Zm32.64-11.493q-15.3,0-30.6,0a8.54,8.54,0,0,0-1.211.068,3.958,3.958,0,0,0-3.463,3.517,20.963,20.963,0,0,0-.037,2.3v.006l0,.086c.006.3.012.614.012.93v1.21H41.379c4.449,0,9.049,0,13.613-.026A2.244,2.244,0,0,0,57.1,32.418c.4-1.309.743-2.608,1.1-3.982l.022-.084.007-.029q.156-.595.318-1.209l.4-1.52Z" transform="translate(0.081 0.081)" fill="none" stroke="#000" stroke-miterlimit="10" stroke-width="0.5"/>
      <path id="Fill_5" data-name="Fill 5" d="M23.15.453a1.54,1.54,0,0,0-2.181,0L7.6,13.846,2.633,8.873A1.544,1.544,0,0,0,.452,11.058l6.055,6.065a1.529,1.529,0,0,0,1.09.452h0a1.53,1.53,0,0,0,1.09-.452L23.15,2.637a1.547,1.547,0,0,0,0-2.185Z" transform="translate(106.23 63.132)"/>
      <path id="Stroke_7" data-name="Stroke 7" d="M23.15.453a1.54,1.54,0,0,0-2.181,0L7.6,13.846,2.633,8.873A1.544,1.544,0,0,0,.452,11.058l6.055,6.065a1.529,1.529,0,0,0,1.09.452h0a1.53,1.53,0,0,0,1.09-.452L23.15,2.637a1.547,1.547,0,0,0,0-2.185Z" transform="translate(106.23 63.132)" fill="none" stroke="#000" stroke-miterlimit="10" stroke-width="1"/>
    </g>
  </g>
</svg>
