<svg xmlns="http://www.w3.org/2000/svg" xmlns:xlink="http://www.w3.org/1999/xlink" width="102.928" height="88.309" viewBox="0 0 102.928 88.309">
  <defs>
    <clipPath id="clip-path">
      <path id="Clip_20" data-name="Clip 20" d="M0,0H102.928V88.309H0Z" transform="translate(0 0.022)" fill="none"/>
    </clipPath>
  </defs>
  <g id="Group_24" data-name="Group 24" transform="translate(0 -0.154)">
    <g id="Group_22" data-name="Group 22">
      <path id="Fill_1" data-name="Fill 1" d="M3.4,2.073A1.334,1.334,0,0,0,1.183.594C-.906,3.723.239,6.036,1.076,7.727c.779,1.578,1.25,2.53.108,4.245A1.333,1.333,0,1,0,3.4,13.452c2-3,.882-5.259.065-6.909-.78-1.577-1.3-2.619-.062-4.47" transform="translate(42.101 39.833)"/>
      <path id="Fill_3" data-name="Fill 3" d="M3.466,6.542c-.782-1.576-1.3-2.618-.064-4.469A1.337,1.337,0,0,0,3.032.224a1.336,1.336,0,0,0-1.85.37C-.9,3.723.238,6.036,1.074,7.729c.779,1.577,1.25,2.529.107,4.244A1.334,1.334,0,1,0,3.4,13.452c2-3,.882-5.259.065-6.909Z" transform="translate(49.656 39.833)"/>
      <path id="Fill_5" data-name="Fill 5" d="M3.466,6.542c-.782-1.576-1.3-2.618-.064-4.469A1.337,1.337,0,0,0,3.032.224a1.336,1.336,0,0,0-1.85.37C-.9,3.723.238,6.036,1.074,7.729c.779,1.577,1.25,2.53.107,4.244A1.334,1.334,0,1,0,3.4,13.452c2-3,.882-5.259.065-6.909Z" transform="translate(57.209 39.833)"/>
      <path id="Fill_7" data-name="Fill 7" d="M1.334,0A1.336,1.336,0,0,0,0,1.334V18.4a1.334,1.334,0,1,0,2.669,0V1.334A1.336,1.336,0,0,0,1.334,0" transform="translate(36.314 58.796)"/>
      <path id="Fill_9" data-name="Fill 9" d="M1.334,0A1.336,1.336,0,0,0,0,1.334V18.4a1.334,1.334,0,1,0,2.669,0V1.334A1.336,1.336,0,0,0,1.334,0" transform="translate(42.003 58.796)"/>
      <path id="Fill_11" data-name="Fill 11" d="M1.334,0A1.336,1.336,0,0,0,0,1.334V18.4a1.334,1.334,0,1,0,2.669,0V1.334A1.336,1.336,0,0,0,1.334,0" transform="translate(47.692 58.796)"/>
      <path id="Fill_13" data-name="Fill 13" d="M1.334,0A1.336,1.336,0,0,0,0,1.334V18.4a1.334,1.334,0,1,0,2.669,0V1.334A1.336,1.336,0,0,0,1.334,0" transform="translate(53.382 58.796)"/>
      <path id="Fill_15" data-name="Fill 15" d="M1.334,0A1.336,1.336,0,0,0,0,1.334V18.4a1.334,1.334,0,1,0,2.669,0V1.334A1.336,1.336,0,0,0,1.334,0" transform="translate(59.071 58.796)"/>
      <path id="Fill_17" data-name="Fill 17" d="M1.334,0A1.336,1.336,0,0,0,0,1.334V18.4a1.334,1.334,0,1,0,2.669,0V1.334A1.336,1.336,0,0,0,1.334,0" transform="translate(64.76 58.796)"/>
      <g id="Group_21" data-name="Group 21" transform="translate(0 0.132)">
        <path id="Clip_20-2" data-name="Clip 20" d="M0,0H102.928V88.309H0Z" transform="translate(0 0.022)" fill="none"/>
        <g id="Group_21-2" data-name="Group 21" clip-path="url(#clip-path)">
          <path id="Fill_19" data-name="Fill 19" d="M96.416,88.309H6.512c-2.557,0-4.411-.792-5.511-2.355a6.367,6.367,0,0,1-.959-4.342,10,10,0,0,1,.419-2.045L9.554,34.743a1.547,1.547,0,0,1,.9-1.111l40.193-17.38V1.544A1.546,1.546,0,0,1,52.191,0H68.934a1.544,1.544,0,0,1,1.093,2.636L65.949,6.713l4.342,4.342a1.544,1.544,0,0,1-1.085,2.636l-15.471.066v2.558L92.49,33.639a1.549,1.549,0,0,1,.883,1.1l9.093,44.825a10.013,10.013,0,0,1,.42,2.045,6.372,6.372,0,0,1-.959,4.342C100.828,87.516,98.974,88.309,96.416,88.309ZM65.533,82.171V84.63a1.321,1.321,0,0,1-.139.59H96.416c1.49,0,2.492-.349,2.981-1.037.778-1.1.35-3.041.12-3.7a1.689,1.689,0,0,1-.059-.21L90.6,36.594H12.33L3.47,80.276a1.559,1.559,0,0,1-.06.215c-.229.656-.654,2.6.122,3.693.487.688,1.49,1.037,2.98,1.037H38.35a1.322,1.322,0,0,1-.14-.59V82.171H35.752a5.132,5.132,0,0,1-5.126-5.126V59.976a5.132,5.132,0,0,1,5.126-5.126H67.99a5.133,5.133,0,0,1,5.127,5.126V77.045a5.133,5.133,0,0,1-5.127,5.126Zm-24.654,0V84.63a1.309,1.309,0,0,1-.139.59H63a1.322,1.322,0,0,1-.139-.59V82.171ZM35.752,57.518a2.461,2.461,0,0,0-2.458,2.458V77.045A2.461,2.461,0,0,0,35.752,79.5H67.99a2.461,2.461,0,0,0,2.459-2.458V59.976a2.461,2.461,0,0,0-2.459-2.458Zm16.374-38.54h0L18.53,33.505H84.622l-32.5-14.527Zm1.61-15.89v7.58l11.751-.049L62.673,7.806a1.556,1.556,0,0,1-.453-1.093,1.534,1.534,0,0,1,.453-1.092l2.533-2.533Z" transform="translate(0 0.022)"/>
        </g>
      </g>
    </g>
  </g>
</svg>
